# This file uses centimeters as units for non-parametric coordinates.

mtllib PantryCabinetExport.mtl
g default
v 256.780687 -9.357796 -677.147707
v 371.780687 -9.357796 -677.147707
v 256.780687 140.642222 -677.147707
v 371.780687 140.642222 -677.147707
v 256.780687 140.642222 -717.647707
v 371.780687 140.642222 -717.647707
v 256.780687 -9.357796 -717.647707
v 371.780687 -9.357796 -717.647707
v 263.146081 -9.357796 -677.147707
v 263.146081 140.642222 -677.147707
v 263.146081 140.642222 -717.647707
v 263.146081 -9.357796 -717.647707
v 364.597793 -9.357796 -677.147707
v 364.597793 140.642222 -677.147707
v 364.597793 140.642222 -717.647707
v 364.597793 -9.357796 -717.647707
v 256.780687 134.859572 -677.147707
v 256.780687 134.859527 -717.647707
v 263.146081 134.859527 -717.647707
v 364.597793 134.859527 -717.647707
v 371.780687 134.859527 -717.647707
v 371.780687 134.859572 -677.147707
v 364.597793 134.859572 -677.147707
v 263.146081 134.859572 -677.147707
v 256.780687 -3.960641 -677.147707
v 256.780687 -3.960606 -717.647707
v 263.146081 -3.960606 -717.647707
v 364.597793 -3.960606 -717.647707
v 371.780687 -3.960606 -717.647707
v 371.780687 -3.960641 -677.147707
v 364.597793 -3.960641 -677.147707
v 263.146081 -3.960641 -677.147707
v 351.916247 44.905000 -677.147707
v 263.146081 44.905000 -677.147707
v 301.190391 -3.960641 -677.147707
v 364.597793 44.905000 -677.147707
v 301.190391 90.552036 -677.147707
v 364.597793 90.552036 -677.147707
v 263.146081 90.552036 -677.147707
v 364.597793 30.744419 -677.147707
v 263.146081 30.744419 -677.147707
v 364.597793 87.442935 -677.147707
v 263.146081 117.507047 -677.147707
v 351.916247 41.376791 -677.147707
v 263.146081 41.376787 -677.147707
v 364.597793 117.507047 -677.147707
v 339.234700 134.859572 -677.147707
v 351.916247 87.442935 -677.147707
v 263.146081 87.442935 -677.147707
v 263.146081 13.391892 -677.147707
v 364.597793 41.376787 -677.147707
v 364.597793 13.391892 -677.147707
v 364.597793 13.391892 -709.737473
v 364.597793 30.744419 -709.737473
v 364.597793 41.376787 -709.737473
v 351.916247 41.376791 -709.737473
v 263.146081 41.376787 -709.737473
v 263.146081 30.744419 -709.737473
v 263.146081 13.391892 -709.737473
v 263.146081 -3.960641 -709.737473
v 301.190391 -3.960641 -709.737473
v 364.597793 -3.960641 -709.737473
v 263.146081 90.552036 -709.737473
v 263.146081 117.507047 -709.737473
v 301.190391 90.552036 -709.737473
v 364.597793 90.552036 -709.737473
v 364.597793 117.507047 -709.737473
v 364.597793 134.859572 -709.737473
v 339.234700 134.859572 -709.737473
v 263.146081 134.859572 -709.737473
v 351.916247 87.442935 -709.737550
v 364.597793 87.442935 -709.737550
v 263.146081 87.442935 -709.737550
v 263.146081 44.905000 -709.737550
v 351.916247 44.905000 -709.737550
v 364.597793 44.905000 -709.737550
v 256.780687 -9.357796 -682.634450
v 263.146081 -9.357796 -682.649282
v 364.597793 -9.357796 -682.886741
v 371.780687 -9.357796 -682.903504
v 256.780687 -9.357796 -712.353155
v 263.146081 -9.357796 -712.351687
v 364.597793 -9.357796 -712.329208
v 371.780687 -9.357796 -712.327740
v 257.663934 -13.357801 -681.875184
v 262.262861 -13.357801 -681.885921
v 262.262861 -13.357801 -677.911068
v 257.663934 -13.357801 -677.911068
v 365.822177 -13.357801 -681.911336
v 365.822177 -13.357801 -678.128829
v 370.556275 -13.357801 -681.922459
v 370.556275 -13.357801 -678.128829
v 257.563420 -13.357801 -716.996509
v 262.363321 -13.357801 -716.996509
v 262.363321 -13.357801 -713.002962
v 257.563420 -13.357801 -713.004043
v 365.826180 -13.357801 -713.238567
v 370.552272 -13.357801 -713.237485
v 365.826180 -13.357801 -716.737961
v 370.552272 -13.357801 -716.737961
vt 0.015542 0.155705
vt 0.127995 0.193013
vt 0.356670 0.219711
vt 0.223118 0.522502
vt 0.702319 0.189440
vt 0.242688 0.967745
vt 0.940403 0.960993
vt 0.952121 0.960993
vt 0.952127 0.694936
vt 0.940416 0.694936
vt 0.277082 0.198807
vt 0.317442 0.087729
vt 0.062752 0.099850
vt 0.116515 0.099064
vt 0.117085 0.145533
vt 0.063321 0.146193
vt 0.374481 0.163864
vt 0.476863 0.195890
vt 0.564177 0.157111
vt 0.659488 0.191524
vt 0.985245 0.221591
vt 0.577213 0.522502
vt 0.217459 0.048730
vt 0.051752 0.052400
vt 0.672420 0.295627
vt 0.446232 0.219482
vt 0.408294 0.047157
vt 0.555062 0.967745
vt 0.753769 0.960993
vt 0.753723 0.694936
vt 0.696774 0.077959
vt 0.164294 0.089552
vt 0.510508 0.079102
vt 0.577180 0.967745
vt 0.740492 0.960993
vt 0.420384 0.094826
vt 0.463670 0.094046
vt 0.464774 0.148220
vt 0.421360 0.149002
vt 0.952109 0.950353
vt 0.702319 0.206441
vt 0.940400 0.950353
vt 0.753769 0.950353
vt 0.985245 0.606344
vt 0.577179 0.949940
vt 0.596184 0.478874
vt 0.281621 0.401763
vt 0.476968 0.949940
vt 0.555066 0.896510
vt 0.673041 0.298477
vt 0.594939 0.474834
vt 0.668978 0.299412
vt 0.596167 0.479275
vt 0.672628 0.377328
vt 0.555092 0.575931
vt 0.280249 0.337479
vt 0.242709 0.629361
vt 0.280417 0.403360
vt 0.356583 0.226730
vt 0.282543 0.402152
vt 0.358478 0.221366
vt 0.281699 0.361023
vt 0.447800 0.221535
vt 0.565454 0.475127
vt 0.595803 0.336673
vt 0.595907 0.377524
vt 0.595971 0.402554
vt 0.566116 0.402630
vt 0.357138 0.403164
vt 0.357074 0.378133
vt 0.356970 0.337283
vt 0.356866 0.296432
vt 0.446428 0.296204
vt 0.595698 0.295823
vt 0.358214 0.361167
vt 0.358334 0.297881
vt 0.447655 0.298050
vt 0.596525 0.298332
vt 0.596406 0.361618
vt 0.596328 0.402359
vt 0.536780 0.402246
vt 0.358137 0.401908
vt 0.594187 0.399063
vt 0.564703 0.399356
vt 0.358314 0.401401
vt 0.357334 0.302501
vt 0.563723 0.300456
vt 0.593208 0.300163
vt 0.516044 0.672963
vt 0.566312 0.479351
vt 0.177081 0.159800
vt 0.601481 0.043555
vt 0.270581 0.096299
vt 0.270033 0.151694
vt 0.223944 0.151238
vt 0.224505 0.095843
vt 0.610473 0.143869
vt 0.611133 0.090729
vt 0.650480 0.091209
vt 0.649832 0.144349
vt 0.672524 0.336477
vt 0.555088 0.629361
vt 0.516044 0.662099
vt 0.555085 0.662099
vt 0.359859 0.522502
vt 0.242717 0.522502
vt 0.242713 0.575931
vt 0.280353 0.378329
vt 0.516025 0.803941
vt 0.555074 0.803941
vt 0.242694 0.803941
vt 0.242686 0.896510
vt 0.242687 0.949940
vt 0.536635 0.478762
vt 0.672921 0.361763
vt 0.555062 0.949940
vt 0.242706 0.662099
vt 0.242694 0.813514
vt 0.359836 0.813514
vt 0.555073 0.813514
vt 0.555084 0.672963
vt 0.562972 0.224685
vt 0.242706 0.672963
vt 0.555096 0.522502
vt 0.163668 0.700620
vt 0.163663 0.725362
vt 0.805830 0.630461
vt 0.163746 0.351010
vt 0.062208 0.700620
vt 0.888949 0.206632
vt 0.061339 0.329089
vt 0.061390 0.351017
vt 0.577213 0.505883
vt 0.042431 0.700618
vt 0.242718 0.505883
vt 0.702319 0.630465
vt 0.753725 0.685006
vt 0.985245 0.206632
vt 0.181996 0.351010
vt 0.952078 0.685006
vt 0.970501 0.206632
vt 0.062266 0.725383
vt 0.163751 0.329066
vt 0.718451 0.630472
vt 0.940416 0.685006
vt 0.181996 0.700623
vt 0.042431 0.351017
vt 0.555095 0.505883
vt 0.872996 0.221591
vt 0.872996 0.606342
vt 0.740503 0.694936
vt 0.740528 0.685006
vt 0.821397 0.614594
vt 0.821397 0.630469
vt 0.702319 0.614602
vt 0.223084 0.949940
vt 0.740553 0.950353
vt 0.821397 0.206437
vt 0.872996 0.206632
vt 0.223118 0.505883
vt 0.602825 0.647448
vt 0.223084 0.967745
vt 0.602825 0.667136
vt 0.602825 0.945201
vt 0.872996 0.622368
vt 0.985245 0.622373
vt 0.602825 0.962647
vt 0.821397 0.189434
vt 0.713830 0.667136
vt 0.713830 0.647448
vt 0.713830 0.945201
vt 0.713830 0.962647
vt 0.592457 0.224393
vt 0.281563 0.303252
vt 0.359065 0.477172
vt 0.669959 0.398312
vt 0.357992 0.478424
vt 0.672844 0.402504
vt 0.596670 0.221817
vt 0.281818 0.297737
vt 0.595502 0.219101
vt 0.280144 0.296628
vt 0.357334 0.479885
vt 0.672692 0.402358
vt 0.053580 0.193926
vt 0.165084 0.153869
vt 0.126165 0.051313
vt 0.014754 0.091562
vt 0.177826 0.086338
vt 0.215962 0.198202
vt 0.316715 0.161191
vt 0.278562 0.049335
vt 0.410995 0.197077
vt 0.512182 0.161298
vt 0.373000 0.081664
vt 0.473970 0.045973
vt 0.661283 0.044284
vt 0.599670 0.190794
vt 0.565180 0.076346
vt 0.695789 0.158724
vn 0.000000 -0.067122 0.997745
vn 0.000000 -0.005943 0.999982
vn 0.000000 0.000000 1.000000
vn 0.000000 0.000000 1.000000
vn 0.000000 1.000000 0.000000
vn 0.000000 1.000000 0.000000
vn 0.000000 1.000000 0.000000
vn 0.000000 1.000000 0.000000
vn 0.000000 0.000000 -1.000000
vn 0.000000 0.000000 -1.000000
vn 0.000000 -0.005219 -0.999986
vn 0.000000 -0.058404 -0.998293
vn 0.000000 -1.000000 0.000000
vn 0.000000 -1.000000 0.000000
vn 0.000000 -1.000000 0.000000
vn 0.000000 -1.000000 0.000000
vn 0.999900 -0.014128 0.000000
vn 0.999974 -0.007232 0.000000
vn 0.999976 -0.006994 0.000000
vn 0.999906 -0.013675 0.000000
vn 1.000000 0.000000 0.000000
vn 1.000000 0.000000 0.000000
vn -0.999945 -0.010442 0.000000
vn -0.999986 -0.005365 0.000000
vn -0.999983 -0.005781 0.000000
vn -0.999937 -0.011238 0.000000
vn -1.000000 0.000000 0.000000
vn -1.000000 0.000000 0.000000
vn -0.000000 0.000000 1.000000
vn 0.000000 0.000000 1.000000
vn 0.000000 -0.007885 0.999969
vn 0.000000 1.000000 0.000000
vn 0.000000 1.000000 0.000000
vn 0.000000 0.000000 -1.000000
vn 0.000000 -0.007252 -0.999974
vn 0.000000 -1.000000 0.000000
vn 0.000000 -1.000000 0.000000
vn 0.000000 -1.000000 0.000000
vn 0.000000 -1.000000 0.000000
vn -0.000000 0.000000 1.000000
vn 0.000000 -0.081739 0.996654
vn 0.000000 1.000000 0.000000
vn 0.000000 1.000000 0.000000
vn 0.000000 0.000000 -1.000000
vn 0.000000 -0.075405 -0.997153
vn 0.000000 -1.000000 0.000000
vn 0.000000 -1.000000 0.000000
vn 0.000000 -1.000000 0.000000
vn 0.000000 -1.000000 0.000000
vn -1.000000 0.000000 0.000000
vn -1.000000 0.000000 0.000000
vn -1.000000 0.000000 0.000000
vn -1.000000 0.000000 0.000000
vn 0.000000 0.000000 -1.000000
vn 0.000000 0.000000 -1.000000
vn 0.000000 0.000000 -1.000000
vn 0.000000 0.000000 -1.000000
vn 0.000000 0.000000 -1.000000
vn 0.000000 0.000000 -1.000000
vn 0.000000 0.000000 -1.000000
vn 0.000000 0.000000 -1.000000
vn 1.000000 0.000000 0.000000
vn 1.000000 0.000000 0.000000
vn 1.000000 0.000000 0.000000
vn 1.000000 0.000000 0.000000
vn 0.000000 0.000000 1.000000
vn -0.000000 0.000000 1.000000
vn -0.000000 0.000000 1.000000
vn 0.000000 0.000000 1.000000
vn 0.000000 0.000000 1.000000
vn 0.000000 0.000000 1.000000
vn 0.000000 0.000000 1.000000
vn 0.000000 0.000000 1.000000
vn 0.000000 0.000000 1.000000
vn -0.000000 0.000000 1.000000
vn -0.000000 0.000000 1.000000
vn -0.000000 0.000000 1.000000
vn -0.000000 0.000000 1.000000
vn -0.000000 0.000000 1.000000
vn -0.000000 0.000000 1.000000
vn -0.000000 0.000000 1.000000
vn 0.000000 0.000000 1.000000
vn 0.000000 0.000000 1.000000
vn 0.000000 0.000000 1.000000
vn 0.000000 0.000000 1.000000
vn 0.000000 0.000000 1.000000
vn 0.000000 0.000000 1.000000
vn 0.000000 0.000000 1.000000
vn 0.000000 0.000000 1.000000
vn 0.000000 0.000000 1.000000
vn -0.000000 0.000000 1.000000
vn -0.000000 0.000000 1.000000
vn -0.000000 0.000000 1.000000
vn -0.000000 0.000000 1.000000
vn -0.000000 0.000000 1.000000
vn -0.000000 0.000000 1.000000
vn -0.000000 0.000000 1.000000
vn -0.000000 0.000000 1.000000
vn -0.000000 0.000000 1.000000
vn -0.000000 0.000000 1.000000
vn 0.000000 0.000000 1.000000
vn 0.000000 0.000000 1.000000
vn 0.000000 0.000000 1.000000
vn 0.000000 0.000000 1.000000
vn 0.000000 0.000000 1.000000
vn 0.000000 0.000000 1.000000
vn 0.000000 0.000000 1.000000
vn 0.000000 0.000000 1.000000
vn 0.000000 0.000000 1.000000
vn 0.000000 0.000000 1.000000
vn 0.000000 0.000000 1.000000
vn 0.000000 0.000000 1.000000
vn 0.000000 0.000000 1.000000
vn 0.000000 0.000000 1.000000
vn 0.000000 0.000000 1.000000
vn 0.000000 0.000000 1.000000
vn 0.000000 -1.000000 0.000000
vn 0.000000 -1.000000 0.000000
vn 0.000000 -1.000000 0.000000
vn 0.000000 -1.000000 0.000000
vn 0.000000 -1.000000 0.000000
vn 0.000000 -1.000000 0.000000
vn 1.000000 0.000000 0.000000
vn 1.000000 0.000000 0.000000
vn 1.000000 0.000000 0.000000
vn 1.000000 0.000000 0.000000
vn 1.000000 0.000000 0.000000
vn 1.000000 0.000000 0.000000
vn 1.000000 0.000000 0.000000
vn 1.000000 0.000000 0.000000
vn 0.000000 1.000000 0.000000
vn 0.000000 1.000000 0.000000
vn 0.000000 1.000000 0.000000
vn 0.000000 1.000000 0.000000
vn 0.000000 1.000000 0.000000
vn 0.000000 1.000000 0.000000
vn -1.000000 0.000000 0.000000
vn -1.000000 0.000000 0.000000
vn -1.000000 0.000000 0.000000
vn -1.000000 0.000000 0.000000
vn -1.000000 0.000000 0.000000
vn -1.000000 0.000000 0.000000
vn -1.000000 0.000000 0.000000
vn -1.000000 0.000000 0.000000
vn 0.000000 1.000000 0.000000
vn 0.000000 1.000000 0.000000
vn 0.000000 1.000000 0.000000
vn 0.000000 1.000000 0.000000
vn 0.000000 1.000000 0.000000
vn 0.000000 1.000000 0.000000
vn -1.000000 0.000000 0.000000
vn -1.000000 0.000000 0.000000
vn -1.000000 0.000000 0.000000
vn -1.000000 0.000000 0.000000
vn -1.000000 0.000000 0.000000
vn -1.000000 0.000000 0.000000
vn 0.000000 -1.000000 0.000000
vn 0.000000 -1.000000 0.000000
vn 0.000000 -1.000000 0.000000
vn 0.000000 -1.000000 0.000000
vn 0.000000 -1.000000 0.000000
vn 0.000000 -1.000000 0.000000
vn 1.000000 0.000000 0.000000
vn 1.000000 0.000000 0.000000
vn 1.000000 0.000000 0.000000
vn 1.000000 0.000000 0.000000
vn 1.000000 0.000000 0.000000
vn 1.000000 0.000000 0.000000
vn 0.000000 -1.000000 0.000000
vn 0.000000 -1.000000 0.000000
vn 0.000000 -1.000000 0.000000
vn 0.000000 -1.000000 0.000000
vn 0.000000 -1.000000 0.000000
vn 0.000000 -1.000000 0.000000
vn 1.000000 0.000000 0.000000
vn 1.000000 0.000000 0.000000
vn 1.000000 0.000000 0.000000
vn 1.000000 0.000000 0.000000
vn 0.000000 1.000000 0.000000
vn 0.000000 1.000000 0.000000
vn 0.000000 1.000000 0.000000
vn 0.000000 1.000000 0.000000
vn 0.000000 1.000000 0.000000
vn 0.000000 1.000000 0.000000
vn -1.000000 0.000000 0.000000
vn -1.000000 0.000000 0.000000
vn -1.000000 0.000000 0.000000
vn -1.000000 0.000000 0.000000
vn 0.000000 -1.000000 0.000000
vn 0.000000 -1.000000 0.000000
vn 0.000000 -1.000000 0.000000
vn 0.000000 -1.000000 0.000000
vn 0.000000 -1.000000 0.000000
vn 0.000000 -1.000000 0.000000
vn 0.000000 -1.000000 0.000000
vn 0.000000 -1.000000 0.000000
vn 0.000000 -1.000000 0.000000
vn 0.000000 -1.000000 0.000000
vn 0.000000 -1.000000 0.000000
vn 0.000000 -1.000000 0.000000
vn 0.000000 -1.000000 0.000000
vn 0.000000 -1.000000 0.000000
vn 0.000000 -1.000000 0.000000
vn 0.000000 -1.000000 0.000000
vn -0.002291 -0.186972 -0.982363
vn -0.002291 -0.186972 -0.982363
vn -0.002291 -0.186972 -0.982363
vn -0.002291 -0.186972 -0.982363
vn 0.976479 -0.215612 0.000000
vn 0.976479 -0.215612 0.000000
vn 0.976479 -0.215612 0.000000
vn 0.976479 -0.215612 0.000000
vn 0.000000 -0.187457 0.982273
vn 0.000000 -0.187457 0.982273
vn -0.976478 -0.215618 0.000000
vn -0.976478 -0.215618 0.000000
vn -0.956207 -0.292690 0.000000
vn -0.956207 -0.292690 0.000000
vn -0.956207 -0.292690 0.000000
vn -0.956207 -0.292690 0.000000
vn -0.002273 -0.237555 -0.971371
vn -0.002273 -0.237555 -0.971372
vn -0.002273 -0.237555 -0.971372
vn -0.002273 -0.237555 -0.971372
vn 0.956205 -0.292697 0.000000
vn 0.956205 -0.292697 0.000000
vn 0.000000 -0.238219 0.971211
vn 0.000000 -0.238219 0.971212
vn 0.000000 -0.160684 -0.987006
vn 0.000000 -0.160684 -0.987006
vn 0.981386 -0.192048 0.000000
vn 0.981386 -0.192048 0.000000
vn 0.981386 -0.192048 0.000000
vn 0.981386 -0.192048 0.000000
vn -0.000226 -0.160656 0.987010
vn -0.000226 -0.160656 0.987010
vn -0.000226 -0.160656 0.987010
vn -0.000226 -0.160656 0.987010
vn -0.981387 -0.192041 0.000000
vn -0.981387 -0.192041 0.000000
vn -0.000209 -0.221728 0.975109
vn -0.000209 -0.221728 0.975109
vn -0.000209 -0.221728 0.975109
vn -0.000209 -0.221728 0.975109
vn -0.955939 -0.293566 0.000000
vn -0.955939 -0.293566 0.000000
vn -0.955939 -0.293566 0.000000
vn -0.955939 -0.293566 0.000000
vn 0.000000 -0.221773 -0.975098
vn 0.000000 -0.221773 -0.975098
vn 0.955937 -0.293572 0.000000
vn 0.955937 -0.293572 0.000000
s 1
g PantryCabinet
usemtl initialShadingGroup
f 1/160/1 9/135/2 32/106/3 25/4/4
s 2
f 3/167/5 10/164/6 11/171/7 5/172/8
s 3
f 26/9/9 27/10/10 12/145/11 7/140/12
s off
f 85/13/13 86/14/14 87/15/15 88/16/16
s 4
f 2/159/17 80/130/18 84/141/19 8/138/20 29/21/21 30/149/22
s 5
f 7/154/23 81/127/24 77/144/25 1/136/26 25/155/27 26/153/28
s 1
f 31/124/29 35/105/30 32/106/3 9/135/2 13/148/31
s 2
f 11/171/7 10/164/6 14/163/32 15/169/33
s 3
f 12/145/11 27/10/10 28/30/34 16/137/35
s 6
f 9/147/36 78/132/37 79/129/38 13/134/39
s 1
f 30/22/40 31/124/29 13/148/31 2/133/41
s 2
f 15/169/33 14/163/32 4/161/42 6/170/43
s 3
f 16/137/35 28/30/34 29/151/44 8/152/45
s off
f 90/36/46 89/37/47 91/38/48 92/39/49
s 5
f 18/158/50 17/41/51 3/5/52 5/168/53
s 3
f 5/8/54 11/7/55 19/42/56 18/40/57
f 20/43/58 19/42/56 11/7/55 15/29/59
f 21/157/60 20/43/58 15/29/59 6/35/61
s 4
f 22/150/62 21/44/63 6/166/64 4/165/65
s 1
f 14/28/66 23/116/67 22/45/68 4/34/69
f 10/6/70 24/113/71 47/48/72 23/116/67 14/28/66
f 17/156/73 24/113/71 10/6/70 3/162/74
s 5
f 26/153/28 25/155/27 17/41/51 18/158/50
s 3
f 18/40/57 19/42/56 27/10/10 26/9/9
f 28/30/34 27/10/10 19/42/56 20/43/58
f 29/151/44 28/30/34 20/43/58 21/157/60
s 4
f 30/149/22 29/21/21 21/44/63 22/150/62
s 1
f 22/45/68 23/116/67 46/49/75 38/120/76 42/110/77 36/121/78 51/104/79 40/102/80 52/55/81 31/124/29 30/22/40
f 25/4/4 32/106/3 50/107/82 41/57/83 45/117/84 34/123/85 49/111/86 39/118/87 43/112/88 24/113/71 17/156/73
f 42/110/77 38/120/76 37/119/89 39/118/87 49/111/86 48/109/90
s off
f 53/65/91 54/66/92 55/67/93 56/68/94 57/69/95 58/70/96 59/71/97 60/72/98 61/73/99 62/74/100
f 64/75/101 63/76/102 65/77/103 66/78/104 67/79/105 68/80/106 69/81/107 70/82/108
f 72/83/109 71/84/110 73/85/111 74/86/112 75/87/113 76/88/114
s 1
f 51/104/79 36/121/78 33/89/115 34/123/85 45/117/84 44/103/116
s off
f 56/68/117 55/67/118 51/53/119 44/90/120 45/183/121 57/69/122
f 59/71/123 58/70/124 57/69/125 45/58/126 41/108/127 50/56/128 32/182/129 60/72/130
f 61/73/131 60/72/132 32/3/133 35/26/134 31/181/135 62/74/136
f 54/66/137 53/65/138 62/74/139 31/25/140 52/101/141 40/54/142 51/184/143 55/67/144
f 65/77/145 63/76/146 39/61/147 37/63/148 38/179/149 66/78/150
f 67/79/151 66/78/152 38/50/153 46/115/154 23/178/155 68/80/156
f 69/81/157 68/80/158 23/46/159 47/114/160 24/177/161 70/82/162
f 64/75/163 70/82/164 24/47/165 43/62/166 39/180/167 63/76/168
f 71/84/169 72/83/170 42/51/171 48/64/172 49/175/173 73/85/174
f 49/60/175 34/174/176 74/86/177 73/85/178
f 75/87/179 74/86/180 34/59/181 33/122/182 36/173/183 76/88/184
f 36/52/185 42/176/186 72/83/187 76/88/188
s 6
f 81/143/189 82/128/190 78/132/37 77/131/191
f 79/129/38 78/132/37 82/128/190 83/125/192
f 80/142/193 79/129/38 83/125/192 84/126/194
s off
f 93/93/195 94/94/196 95/95/197 96/96/198
s 6
f 83/125/192 82/128/190 12/139/199 16/146/200
s off
f 98/97/201 97/98/202 99/99/203 100/100/204
f 77/24/205 78/187/206 86/14/207 85/13/208
f 78/32/209 9/186/210 87/15/211 86/14/212
s 1
f 9/2/2 1/185/1 88/16/213 87/15/214
s 5
f 1/1/26 77/188/25 85/13/215 88/16/216
s off
f 13/27/217 79/196/218 89/37/219 90/36/220
f 79/33/221 80/194/222 91/38/223 89/37/224
s 4
f 80/18/18 2/193/17 92/39/225 91/38/226
s 1
f 2/17/41 13/195/31 90/36/227 92/39/228
s 3
f 7/12/12 12/191/11 94/94/229 93/93/230
s off
f 12/11/231 82/190/232 95/95/233 94/94/234
f 82/91/235 81/189/236 96/96/237 95/95/238
s 5
f 81/23/24 7/192/23 93/93/239 96/96/240
s off
f 84/19/241 83/199/242 97/98/243 98/97/244
f 83/92/245 16/197/246 99/99/247 97/98/248
s 3
f 16/31/35 8/200/45 100/100/249 99/99/250
s 4
f 8/20/20 84/198/19 98/97/251 100/100/252
