# This file uses centimeters as units for non-parametric coordinates.

mtllib ShortWall2.mtl
g default
v 516.931800 -12.120213 -1022.753192
v 691.931758 -12.120213 -1022.753192
v 516.931800 187.879752 -1022.753192
v 691.931758 187.879752 -1022.753192
v 516.931800 187.879752 -1062.753192
v 691.931758 187.879752 -1062.753192
v 516.931800 -12.120213 -1062.753192
v 691.931758 -12.120213 -1062.753192
v 559.997038 -12.120213 -1022.753192
v 559.997038 187.879752 -1022.753192
v 559.997038 187.879752 -1062.753192
v 559.997038 -12.120213 -1062.753192
v 604.537401 -12.120213 -1022.753192
v 604.537401 187.879752 -1022.753192
v 604.537401 187.879752 -1062.753192
v 604.537401 -12.120213 -1062.753192
v 647.680453 -12.120213 -1022.753192
v 647.680453 187.879752 -1022.753192
v 647.680453 187.879752 -1062.753192
v 647.680453 -12.120213 -1062.753192
v 516.931800 -12.120213 -1022.753192
v 559.997038 -12.120213 -1022.753192
v 559.997038 187.879752 -1022.753192
v 516.931800 187.879752 -1022.753192
v 516.931800 187.879752 -1062.753192
v 559.997038 187.879752 -1062.753192
v 559.997038 -12.120213 -1062.753192
v 516.931800 -12.120213 -1062.753192
v 691.931758 -12.120213 -1062.753192
v 691.931758 -12.120213 -1022.753192
v 691.931758 187.879752 -1062.753192
v 691.931758 187.879752 -1022.753192
v 604.537401 -12.120213 -1022.753192
v 604.537401 187.879752 -1022.753192
v 604.537401 187.879752 -1062.753192
v 604.537401 -12.120213 -1062.753192
v 647.680453 -12.120213 -1022.753192
v 647.680453 187.879752 -1022.753192
v 647.680453 187.879752 -1062.753192
v 647.680453 -12.120213 -1062.753192
v 516.931800 -12.120213 -1018.753177
v 559.997038 -12.120213 -1018.753177
v 559.997038 187.879752 -1018.753177
v 516.931800 187.879752 -1018.753177
v 604.537401 -12.120213 -1018.753177
v 604.537401 187.879752 -1018.753177
v 647.680453 -12.120213 -1018.753177
v 647.680453 187.879752 -1018.753177
v 691.931758 -12.120213 -1018.753177
v 691.931758 187.879752 -1018.753177
v 516.931800 187.879752 -1066.753131
v 559.997038 187.879752 -1066.753131
v 559.997038 -12.120213 -1066.753131
v 516.931800 -12.120213 -1066.753131
v 604.537401 187.879752 -1066.753131
v 604.537401 -12.120213 -1066.753131
v 647.680453 187.879752 -1066.753131
v 647.680453 -12.120213 -1066.753131
v 691.931758 187.879752 -1066.753131
v 691.931758 -12.120213 -1066.753131
v 516.931800 212.879752 -1022.753192
v 559.997038 212.879752 -1022.753192
v 559.997038 212.879752 -1062.753192
v 516.931800 212.879752 -1062.753192
v 604.537401 212.879752 -1022.753192
v 604.537401 212.879752 -1062.753192
v 647.680453 212.879752 -1022.753192
v 647.680453 212.879752 -1062.753192
vt 0.285019 0.644756
vt 0.254018 0.195913
vt 0.353484 0.962717
vt 0.770225 0.587622
vt 0.651738 0.660683
vt 0.724459 0.661328
vt 0.723860 0.728873
vt 0.651139 0.728228
vt 0.240993 0.927154
vt 0.221473 0.487281
vt 0.187894 0.680559
vt 0.639294 0.010257
vt 0.208690 0.209100
vt 0.208690 0.209100
vt 0.080856 0.209100
vt 0.080856 0.209100
vt 0.847390 0.523589
vt 0.385922 0.593151
vt 0.933412 0.953697
vt 0.080856 0.064125
vt 0.652113 0.618468
vt 0.608924 0.727853
vt 0.254018 0.329075
vt 0.424295 0.962717
vt 0.723485 0.771088
vt 0.766674 0.661703
vt 0.609069 0.916725
vt 0.718814 0.958797
vt 0.221473 0.345384
vt 0.132977 0.680559
vt 0.208690 0.209100
vt 0.080856 0.209100
vt 0.254018 0.458669
vt 0.492884 0.962717
vt 0.718768 0.916605
vt 0.651261 0.916679
vt 0.651181 0.843868
vt 0.718688 0.843794
vt 0.221473 0.207137
vt 0.079783 0.680559
vt 0.208690 0.209100
vt 0.080856 0.209100
vt 0.838788 0.523589
vt 0.068073 0.064125
vt 0.760880 0.843747
vt 0.651134 0.801676
vt 0.080856 0.274746
vt 0.208690 0.274746
vt 0.942014 0.953697
vt 0.397913 0.593151
vt 0.208690 0.209100
vt 0.080856 0.209100
vt 0.266009 0.195913
vt 0.266009 0.068580
vt 0.758798 0.587622
vt 0.080856 0.487280
vt 0.208690 0.487281
vt 0.208690 0.623360
vt 0.650721 0.010257
vt 0.385922 0.195907
vt 0.266009 0.329075
vt 0.080856 0.345384
vt 0.208690 0.345384
vt 0.385922 0.329075
vt 0.266009 0.458669
vt 0.080856 0.207138
vt 0.208690 0.207137
vt 0.385922 0.458674
vt 0.080856 0.416166
vt 0.208690 0.416166
vt 0.080856 0.274284
vt 0.208690 0.274284
vt 0.080856 0.416628
vt 0.208690 0.416628
vt 0.080856 0.345456
vt 0.467440 0.611646
vt 0.068073 0.207138
vt 0.563235 0.962717
vt 0.563235 0.644756
vt 0.492884 0.644756
vt 0.068073 0.345384
vt 0.424295 0.644756
vt 0.068073 0.487280
vt 0.353484 0.644756
vt 0.254018 0.068580
vt 0.285019 0.962717
vt 0.221473 0.064116
vt 0.942014 0.523589
vt 0.933412 0.523589
vt 0.208690 0.064116
vt 0.254018 0.593140
vt 0.838788 0.953697
vt 0.847390 0.953697
vt 0.080856 0.209100
vt 0.639294 0.581616
vt 0.397913 0.068569
vt 0.208690 0.209100
vt 0.650721 0.581616
vt 0.770225 0.016263
vt 0.068073 0.623352
vt 0.080856 0.623352
vt 0.758798 0.016263
vt 0.467440 0.040287
vt 0.581712 0.040287
vt 0.208690 0.345456
vt 0.581712 0.611646
vt 0.397913 0.458674
vt 0.025222 0.680559
vt 0.208690 0.209100
vt 0.397913 0.329075
vt 0.397913 0.195907
vt 0.240993 0.680559
vt 0.385922 0.068569
vt 0.266009 0.593140
vt 0.080856 0.209100
vt 0.208690 0.209100
vt 0.080856 0.209100
vt 0.208690 0.209100
vt 0.080856 0.209100
vt 0.208690 0.209100
vt 0.080856 0.209100
vt 0.385922 0.459375
vt 0.385922 0.592034
vt 0.266009 0.459375
vt 0.266009 0.592034
vt 0.385922 0.330040
vt 0.266009 0.330040
vt 0.385922 0.196515
vt 0.266009 0.196515
vt 0.385922 0.067413
vt 0.266009 0.067413
vt 0.718642 0.801602
vt 0.608989 0.843914
vt 0.760960 0.916559
vt 0.651307 0.958871
vt 0.650765 0.770443
vt 0.766075 0.729247
vt 0.724833 0.619113
vt 0.609523 0.660308
vt 0.025222 0.927154
vt 0.079783 0.927154
vt 0.132977 0.927154
vt 0.187894 0.927154
vt 0.221473 0.623360
vn 0.000000 0.000000 1.000000
vn 0.000000 0.000000 1.000000
vn 0.000000 0.000000 1.000000
vn 0.000000 0.000000 1.000000
vn 0.000000 1.000000 0.000000
vn 0.000000 1.000000 0.000000
vn 0.000000 1.000000 0.000000
vn 0.000000 1.000000 0.000000
vn 0.000000 0.000000 -1.000000
vn 0.000000 0.000000 -1.000000
vn 0.000000 0.000000 -1.000000
vn 0.000000 0.000000 -1.000000
vn 0.000000 -1.000000 0.000000
vn 0.000000 -1.000000 0.000000
vn 0.000000 -1.000000 0.000000
vn 0.000000 -1.000000 0.000000
vn 1.000000 0.000000 0.000000
vn 1.000000 0.000000 0.000000
vn 1.000000 0.000000 0.000000
vn 1.000000 0.000000 0.000000
vn -1.000000 0.000000 0.000000
vn -1.000000 0.000000 0.000000
vn -1.000000 0.000000 0.000000
vn -1.000000 0.000000 0.000000
vn 0.000000 0.000000 1.000000
vn 0.000000 0.000000 1.000000
vn 0.000000 1.000000 0.000000
vn 0.000000 1.000000 0.000000
vn 0.000000 1.000000 0.000000
vn 0.000000 1.000000 0.000000
vn 0.000000 0.000000 -1.000000
vn 0.000000 0.000000 -1.000000
vn 0.000000 -1.000000 0.000000
vn 0.000000 -1.000000 0.000000
vn 0.000000 0.000000 1.000000
vn 0.000000 0.000000 1.000000
vn 0.000000 1.000000 0.000000
vn 0.000000 1.000000 0.000000
vn 0.000000 1.000000 0.000000
vn 0.000000 1.000000 0.000000
vn 0.000000 0.000000 -1.000000
vn 0.000000 0.000000 -1.000000
vn 0.000000 -1.000000 0.000000
vn 0.000000 -1.000000 0.000000
vn 0.000000 0.000000 1.000000
vn 0.000000 0.000000 1.000000
vn 0.000000 1.000000 0.000000
vn 0.000000 1.000000 0.000000
vn 0.000000 1.000000 0.000000
vn 0.000000 1.000000 0.000000
vn 0.000000 0.000000 -1.000000
vn 0.000000 0.000000 -1.000000
vn 0.000000 -1.000000 0.000000
vn 0.000000 -1.000000 0.000000
vn 0.000000 0.000000 0.000000
vn 0.000000 0.000000 0.000000
vn 0.000000 0.000000 0.000000
vn 0.000000 0.000000 0.000000
vn 0.000000 0.000000 0.000000
vn 0.000000 0.000000 0.000000
vn 0.000000 0.000000 0.000000
vn 0.000000 0.000000 0.000000
vn 0.000000 0.000000 0.000000
vn 0.000000 0.000000 0.000000
vn 0.000000 0.000000 0.000000
vn 0.000000 0.000000 0.000000
vn 0.000000 0.000000 0.000000
vn 0.000000 0.000000 0.000000
vn 0.000000 0.000000 0.000000
vn 0.000000 0.000000 0.000000
vn 0.000000 0.000000 0.000000
vn 0.000000 0.000000 0.000000
vn 0.000000 0.000000 0.000000
vn 0.000000 0.000000 0.000000
vn 0.000000 0.000000 0.000000
vn 0.000000 0.000000 0.000000
vn 0.000000 0.000000 0.000000
vn 0.000000 0.000000 0.000000
vn 0.000000 0.000000 0.000000
vn 0.000000 0.000000 0.000000
vn 0.000000 0.000000 0.000000
vn 0.000000 0.000000 0.000000
vn 0.000000 0.000000 0.000000
vn 0.000000 0.000000 0.000000
vn 0.000000 0.000000 0.000000
vn 0.000000 0.000000 0.000000
vn 0.000000 0.000000 0.000000
vn 0.000000 0.000000 0.000000
vn 0.000000 0.000000 0.000000
vn 0.000000 0.000000 0.000000
vn 0.000000 0.000000 0.000000
vn 0.000000 0.000000 0.000000
vn 0.000000 0.000000 0.000000
vn 0.000000 0.000000 0.000000
vn 0.000000 0.000000 0.000000
vn 0.000000 0.000000 0.000000
vn 0.000000 0.000000 0.000000
vn 0.000000 0.000000 0.000000
vn 0.000000 0.000000 0.000000
vn 0.000000 0.000000 0.000000
vn 0.000000 0.000000 0.000000
vn 0.000000 0.000000 0.000000
vn 0.000000 0.000000 0.000000
vn 0.000000 0.000000 0.000000
vn 0.000000 0.000000 0.000000
vn 0.000000 0.000000 0.000000
vn 0.000000 0.000000 0.000000
vn 0.000000 0.000000 0.000000
vn 0.000000 0.000000 0.000000
vn 0.000000 0.000000 0.000000
vn 0.000000 0.000000 0.000000
vn 0.000000 0.000000 0.000000
vn 0.000000 0.000000 0.000000
vn 0.000000 0.000000 0.000000
vn 0.000000 0.000000 0.000000
vn 0.000000 0.000000 0.000000
vn 0.000000 0.000000 0.000000
vn 0.000000 0.000000 0.000000
vn 0.000000 0.000000 0.000000
vn 0.000000 0.000000 0.000000
vn 0.000000 0.000000 0.000000
vn 0.000000 0.000000 0.000000
vn 0.000000 0.000000 0.000000
vn 0.000000 0.000000 0.000000
vn 0.000000 0.000000 0.000000
vn 0.000000 0.000000 0.000000
vn 0.000000 0.000000 0.000000
vn 0.000000 0.000000 0.000000
vn 0.000000 0.000000 0.000000
vn 0.000000 0.000000 0.000000
vn 0.000000 0.000000 0.000000
vn 0.000000 0.000000 0.000000
vn 0.000000 0.000000 0.000000
vn 0.000000 0.000000 0.000000
vn 0.000000 -1.000000 0.000000
vn 0.000000 -1.000000 0.000000
vn 0.000000 -1.000000 0.000000
vn 0.000000 -1.000000 0.000000
vn 0.000000 1.000000 0.000000
vn 0.000000 1.000000 0.000000
vn 0.000000 1.000000 0.000000
vn 0.000000 1.000000 0.000000
vn -1.000000 0.000000 0.000000
vn -1.000000 0.000000 0.000000
vn -1.000000 0.000000 0.000000
vn -1.000000 0.000000 0.000000
vn 0.000000 -1.000000 0.000000
vn 0.000000 -1.000000 0.000000
vn 0.000000 1.000000 0.000000
vn 0.000000 1.000000 0.000000
vn 0.000000 -1.000000 0.000000
vn 0.000000 -1.000000 0.000000
vn 0.000000 1.000000 0.000000
vn 0.000000 1.000000 0.000000
vn 0.000000 -1.000000 0.000000
vn 0.000000 -1.000000 0.000000
vn 1.000000 0.000000 0.000000
vn 1.000000 0.000000 0.000000
vn 0.000000 1.000000 0.000000
vn 0.000000 1.000000 0.000000
vn 0.000000 1.000000 0.000000
vn 0.000000 1.000000 0.000000
vn 0.000000 1.000000 0.000000
vn 0.000000 1.000000 0.000000
vn 0.000000 -1.000000 0.000000
vn 0.000000 -1.000000 0.000000
vn 0.000000 -1.000000 0.000000
vn 0.000000 -1.000000 0.000000
vn -1.000000 0.000000 0.000000
vn -1.000000 0.000000 0.000000
vn -1.000000 0.000000 0.000000
vn -1.000000 0.000000 0.000000
vn 0.000000 1.000000 0.000000
vn 0.000000 1.000000 0.000000
vn 0.000000 -1.000000 0.000000
vn 0.000000 -1.000000 0.000000
vn 0.000000 1.000000 0.000000
vn 0.000000 1.000000 0.000000
vn 0.000000 -1.000000 0.000000
vn 0.000000 -1.000000 0.000000
vn 0.000000 1.000000 0.000000
vn 0.000000 1.000000 0.000000
vn 1.000000 0.000000 0.000000
vn 1.000000 0.000000 0.000000
vn 0.000000 -1.000000 0.000000
vn 0.000000 -1.000000 0.000000
vn 0.000000 0.000000 1.000000
vn 0.000000 0.000000 1.000000
vn 0.000000 0.000000 1.000000
vn 0.000000 0.000000 1.000000
vn 1.000000 0.000000 0.000000
vn 1.000000 0.000000 0.000000
vn 1.000000 0.000000 0.000000
vn 1.000000 0.000000 0.000000
vn 0.000000 0.000000 -1.000000
vn 0.000000 0.000000 -1.000000
vn 0.000000 0.000000 -1.000000
vn 0.000000 0.000000 -1.000000
vn -1.000000 0.000000 0.000000
vn -1.000000 0.000000 0.000000
vn -1.000000 0.000000 0.000000
vn -1.000000 0.000000 0.000000
vn -1.000000 0.000000 0.000000
vn -1.000000 0.000000 0.000000
vn 0.000000 0.000000 1.000000
vn 0.000000 0.000000 1.000000
vn 0.000000 0.000000 1.000000
vn 0.000000 0.000000 1.000000
vn 1.000000 0.000000 0.000000
vn 1.000000 0.000000 0.000000
vn 1.000000 0.000000 0.000000
vn 1.000000 0.000000 0.000000
vn 0.000000 0.000000 -1.000000
vn 0.000000 0.000000 -1.000000
vn 0.000000 0.000000 -1.000000
vn 0.000000 0.000000 -1.000000
s 1
g Bakesmith_Models_1:ShortWall
usemtl initialShadingGroup
f 41/1/1 42/84/2 43/3/3 44/86/4
s off
f 61/5/5 62/6/6 63/7/7 64/8/8
s 2
f 51/9/9 52/143/10 53/11/11 54/112/12
s 3
f 7/130/13 12/128/14 9/129/15 1/131/16
s 4
f 30/17/17 29/89/18 31/19/19 32/93/20
s 5
f 7/103/21 1/104/22 3/106/23 5/76/24
s 1
f 43/3/3 42/84/2 45/82/25 46/24/26
s off
f 11/74/27 10/73/28 14/71/29 15/72/30
s 2
f 53/11/11 52/143/10 55/142/31 56/30/32
s 3
f 9/129/15 12/128/14 16/126/33 13/127/34
s 1
f 46/24/26 45/82/25 47/80/35 48/34/36
s off
f 66/35/37 65/36/38 67/37/39 68/38/40
s 2
f 56/30/32 55/142/31 57/141/41 58/40/42
s 3
f 13/127/34 16/126/33 20/122/43 17/124/44
s 1
f 48/34/36 47/80/35 49/79/45 50/78/46
s off
f 19/70/47 18/69/48 4/47/49 6/48/50
s 2
f 58/40/42 57/141/41 59/140/51 60/108/52
s 3
f 17/124/44 20/122/43 8/123/53 2/125/54
s off
f 1/16/55 9/15/56 22/121/57 21/115/58
f 10/73/59 3/75/60 24/101/61 23/56/62
f 3/75/63 1/16/64 21/115/65 24/101/66
f 5/105/67 11/74/68 26/57/69 25/58/70
f 12/14/71 7/13/72 28/97/73 27/120/74
f 7/13/75 5/105/76 25/58/77 28/97/78
f 2/52/79 8/51/80 29/109/81 30/94/82
f 6/48/83 4/47/84 32/20/85 31/90/86
f 9/15/87 13/32/88 33/119/89 22/121/90
f 14/71/91 10/73/92 23/56/93 34/62/94
f 11/74/95 15/72/96 35/63/97 26/57/98
f 16/31/99 12/14/100 27/120/101 36/118/102
f 13/32/103 17/42/104 37/117/105 33/119/106
f 18/69/107 14/71/108 34/62/109 38/66/110
f 15/72/111 19/70/112 39/67/113 35/63/114
f 20/41/115 16/31/116 36/118/117 40/116/118
f 17/42/119 2/52/120 30/94/121 37/117/122
f 4/47/123 18/69/124 38/66/125 32/20/126
f 19/70/127 6/48/128 31/90/129 39/67/130
f 8/51/131 20/41/132 40/116/133 29/109/134
s 6
f 21/54/135 22/53/136 42/2/137 41/85/138
s 7
f 23/56/139 24/101/140 44/100/141 43/83/142
s off
f 24/55/143 21/102/144 41/99/145 44/4/146
s 6
f 22/53/136 33/61/147 45/23/148 42/2/137
s 7
f 34/62/149 23/56/139 43/83/142 46/81/150
s 6
f 33/61/147 37/65/151 47/33/152 45/23/148
s 7
f 38/66/153 34/62/149 46/81/150 48/77/154
s 6
f 37/65/151 30/114/155 49/91/156 47/33/152
s 4
f 30/17/17 32/93/20 50/92/157 49/43/158
s 7
f 32/20/159 38/66/153 48/77/154 50/44/160
s 8
f 25/58/161 26/57/162 52/10/163 51/144/164
s 9
f 27/60/165 28/113/166 54/96/167 53/111/168
s off
f 28/59/169 25/98/170 51/95/171 54/12/172
s 8
f 26/57/162 35/63/173 55/29/174 52/10/163
s 9
f 36/64/175 27/60/165 53/111/168 56/110/176
s 8
f 35/63/173 39/67/177 57/39/178 55/29/174
s 9
f 40/68/179 36/64/175 56/110/176 58/107/180
s 8
f 39/67/177 31/90/181 59/87/182 57/39/178
s 4
f 31/19/19 29/89/18 60/88/183 59/49/184
s 9
f 29/18/185 40/68/179 58/107/180 60/50/186
s off
f 3/21/187 10/138/188 62/6/189 61/5/190
f 10/26/191 11/137/192 63/7/193 62/6/194
f 11/25/195 5/136/196 64/8/197 63/7/198
s 5
f 5/22/24 3/139/23 61/5/199 64/8/200
s off
f 15/28/201 14/135/202 65/36/203 66/35/204
f 14/27/205 18/133/206 67/37/207 65/36/208
f 18/46/209 19/132/210 68/38/211 67/37/212
f 19/45/213 15/134/214 66/35/215 68/38/216
