# This file uses centimeters as units for non-parametric coordinates.

mtllib SmallCabinet3Export.mtl
g default
v -104.061874 15.844912 -687.379761
v -102.296776 15.844912 -687.379761
v -104.061874 17.610010 -687.379761
v -102.296776 17.610010 -687.379761
v -104.061874 17.610010 -689.144897
v -102.296776 17.610010 -689.144897
v -104.061874 15.844912 -689.144897
v -102.296776 15.844912 -689.144897
v -104.370766 17.918901 -688.262329
v -101.987885 16.727461 -689.453796
v -103.179321 15.536019 -689.453796
v -104.370766 16.727461 -689.453796
v -101.987885 15.536019 -688.262329
v -104.370766 15.536019 -688.262329
v -103.179321 15.536019 -687.070923
v -101.987885 16.727461 -687.070923
v -103.179321 17.918901 -687.070923
v -104.370766 16.727461 -687.070923
v -101.987885 17.918901 -688.262329
v -103.179321 17.918901 -689.453796
v -103.179321 16.727461 -686.673767
v -103.179321 18.316050 -688.262329
v -103.179321 16.727461 -689.850952
v -103.179321 15.138872 -688.262329
v -101.590736 16.727461 -688.262329
v -104.767914 16.727461 -688.262329
v -75.291931 17.254290 -688.696716
v -75.291931 17.658407 -688.749146
v -75.291931 17.979116 -688.830872
v -75.291931 18.185024 -688.933777
v -75.291931 18.255976 -689.047852
v -75.291931 18.185024 -689.161926
v -75.291931 17.979116 -689.264832
v -75.291931 17.658407 -689.346558
v -75.291931 17.254290 -689.398987
v -75.291931 16.806322 -689.417053
v -75.291931 16.358355 -689.398987
v -75.291931 15.954237 -689.346558
v -75.291931 15.633528 -689.264832
v -75.291931 15.427620 -689.161926
v -75.291931 15.356669 -689.047852
v -75.291931 15.427620 -688.933777
v -75.291931 15.633529 -688.830872
v -75.291931 15.954238 -688.749146
v -75.291931 16.358355 -688.696716
v -75.291931 16.806322 -688.678650
v -81.925797 16.806322 -689.047852
v -112.073624 -12.763759 -688.173157
v -71.573624 -12.763759 -688.173157
v -112.073624 27.736240 -688.173157
v -71.573624 27.736240 -688.173157
v -112.073624 27.736240 -728.673157
v -71.573624 27.736240 -728.673157
v -112.073624 -12.763759 -728.673157
v -71.573624 -12.763759 -728.673157
v -112.073624 24.141338 -688.173157
v -112.073624 24.141342 -728.673157
v -71.573624 24.141342 -728.673157
v -71.573624 24.141338 -688.173157
v -75.490005 -12.763759 -688.173157
v -75.490005 24.141338 -688.173157
v -75.490005 27.736240 -688.173157
v -75.490005 27.736240 -728.673157
v -75.490005 24.141342 -728.673157
v -75.490005 -12.763759 -728.673157
v -108.131371 -12.763759 -688.173157
v -108.131371 24.141338 -688.173157
v -108.131371 27.736240 -688.173157
v -108.131371 27.736240 -728.673157
v -108.131371 24.141342 -728.673157
v -108.131371 -12.763759 -728.673157
v -112.073624 -10.194421 -688.173157
v -112.073624 -10.194427 -728.673157
v -108.131371 -10.194427 -728.673157
v -75.490005 -10.194427 -728.673157
v -71.573624 -10.194427 -728.673157
v -71.573624 -10.194421 -688.173157
v -75.490005 -10.194421 -688.173157
v -108.131371 -10.194421 -688.173157
v -112.073624 21.507595 -728.673157
v -112.073624 21.507582 -688.173157
v -108.131371 21.507582 -688.173157
v -75.490005 21.507582 -688.173157
v -71.573624 21.507582 -688.173157
v -71.573624 21.507595 -728.673157
v -75.490005 21.507595 -728.673157
v -108.131371 21.507595 -728.673157
v -92.547974 24.141338 -688.173157
v -92.547974 21.507582 -688.173157
v -92.547974 -10.194421 -688.173157
v -92.547974 -12.763759 -688.173157
v -92.547974 -12.763759 -728.673157
v -92.547974 -10.194425 -728.673157
v -92.547974 21.507595 -728.673157
v -92.547974 24.141342 -728.673157
v -92.547974 27.736240 -728.673157
v -92.547974 27.736240 -688.173157
v -90.555450 24.141338 -688.173157
v -90.555450 21.507582 -688.173157
v -90.555450 -10.194421 -688.173157
v -90.555450 -12.763759 -688.173157
v -90.555450 -12.763759 -728.673157
v -90.555450 -10.194425 -728.673157
v -90.555450 21.507595 -728.673157
v -90.555450 24.141342 -728.673157
v -90.555450 27.736240 -728.673157
v -90.555450 27.736240 -688.173157
v -75.490005 24.141338 -685.673157
v -90.555450 24.141338 -685.673157
v -71.573624 24.141338 -685.673157
v -71.573624 27.736240 -685.673157
v -75.490005 27.736240 -685.673157
v -90.555450 27.736240 -685.673157
v -92.547974 27.736240 -685.673157
v -108.131371 27.736240 -685.673157
v -112.073624 27.736240 -685.673157
v -112.073624 24.141338 -685.673157
v -108.131371 24.141338 -685.673157
v -92.547974 24.141338 -685.673157
v -75.490005 -10.194421 -689.173157
v -90.555450 -10.194421 -689.173157
v -75.490005 21.507582 -689.173157
v -90.555450 21.507582 -689.173157
v -92.547974 21.507582 -689.173157
v -108.131371 21.507582 -689.173157
v -108.131371 -10.194421 -689.173157
v -92.547974 -10.194421 -689.173157
vt 0.717648 0.591222
vt 0.717648 0.884443
vt 0.790954 0.591222
vt 0.790954 0.884443
vt 0.717648 0.664527
vt 0.790954 0.664527
vt 0.717648 0.737832
vt 0.644343 0.664527
vt 0.790954 0.737832
vt 0.864259 0.664527
vt 0.717648 0.811137
vt 0.644343 0.591222
vt 0.790954 0.811137
vt 0.864259 0.591222
vt 0.754301 0.627874
vt 0.754301 0.701180
vt 0.754301 0.774485
vt 0.754301 0.847790
vt 0.827606 0.627874
vt 0.680996 0.627874
vt 0.754301 0.591222
vt 0.754301 0.884443
vt 0.790954 0.627874
vt 0.754301 0.664527
vt 0.717648 0.627874
vt 0.790954 0.701180
vt 0.827606 0.664527
vt 0.754301 0.737832
vt 0.717648 0.701180
vt 0.680996 0.664527
vt 0.790954 0.774485
vt 0.864259 0.627874
vt 0.754301 0.811137
vt 0.717648 0.774485
vt 0.644343 0.627874
vt 0.790954 0.847790
vt 0.827606 0.591222
vt 0.717648 0.847790
vt 0.680996 0.591222
vt 0.532600 0.715218
vt 0.537255 0.744608
vt 0.532600 0.773998
vt 0.519091 0.800511
vt 0.498050 0.821552
vt 0.471537 0.835061
vt 0.442146 0.839716
vt 0.412756 0.835061
vt 0.386243 0.821552
vt 0.365202 0.800511
vt 0.351693 0.773998
vt 0.347038 0.744608
vt 0.351693 0.715218
vt 0.365202 0.688704
vt 0.386243 0.667663
vt 0.412756 0.654154
vt 0.442146 0.649499
vt 0.471537 0.654154
vt 0.498050 0.667663
vt 0.519091 0.688704
vt 0.076867 0.648202
vt 0.087010 0.648202
vt 0.178301 0.851072
vt 0.097154 0.648202
vt 0.107297 0.648202
vt 0.117441 0.648202
vt 0.127584 0.648202
vt 0.137728 0.648202
vt 0.147871 0.648202
vt 0.158015 0.648202
vt 0.168158 0.648202
vt 0.178301 0.648202
vt 0.188445 0.648202
vt 0.198588 0.648202
vt 0.208732 0.648202
vt 0.218875 0.648202
vt 0.229019 0.648202
vt 0.239162 0.648202
vt 0.249306 0.648202
vt 0.259449 0.648202
vt 0.269593 0.648202
vt 0.279736 0.648202
vt 0.385286 0.319587
vt 0.409621 0.319587
vt 0.409621 0.335447
vt 0.385286 0.335447
vt 0.114080 0.284994
vt 0.114353 0.260660
vt 0.364337 0.263459
vt 0.364064 0.287793
vt 0.598190 0.290414
vt 0.598462 0.266081
vt 0.614321 0.266258
vt 0.614049 0.290592
vt 0.864305 0.269057
vt 0.864033 0.293391
vt 0.635286 0.319587
vt 0.885286 0.319587
vt 0.885286 0.335447
vt 0.635286 0.335447
vt 0.135286 0.319587
vt 0.135286 0.335447
vt 0.135286 0.547396
vt 0.385286 0.547396
vt 0.385286 0.569587
vt 0.135286 0.569587
vt 0.386526 0.263708
vt 0.386254 0.288041
vt 0.635286 0.547396
vt 0.885286 0.547396
vt 0.885286 0.569587
vt 0.635286 0.569587
vt 0.518115 0.547396
vt 0.611111 0.547396
vt 0.635286 0.547396
vt 0.635286 0.569587
vt 0.611111 0.569587
vt 0.518115 0.569587
vt 0.505816 0.569587
vt 0.409621 0.569587
vt 0.385286 0.569587
vt 0.385286 0.547396
vt 0.409621 0.547396
vt 0.505816 0.547396
vt 0.611111 0.335447
vt 0.611111 0.319587
vt 0.366593 0.061983
vt 0.116609 0.059184
vt 0.116879 0.035010
vt 0.366863 0.037809
vt 0.388782 0.062231
vt 0.389053 0.038057
vt 0.616577 0.064782
vt 0.600718 0.064604
vt 0.600989 0.040430
vt 0.616848 0.040608
vt 0.866561 0.067581
vt 0.866832 0.043407
vt 0.518115 0.319587
vt 0.518115 0.335447
vt 0.505816 0.335447
vt 0.505816 0.319587
vt 0.115567 0.152174
vt 0.365552 0.154973
vt 0.365414 0.167271
vt 0.115430 0.164472
vt 0.387741 0.155221
vt 0.387603 0.167520
vt 0.599677 0.157595
vt 0.615536 0.157772
vt 0.615398 0.170070
vt 0.599539 0.169893
vt 0.865520 0.160571
vt 0.865383 0.172869
vt 0.135286 0.531138
vt 0.385286 0.531138
vt 0.402783 0.263890
vt 0.402511 0.288223
vt 0.405039 0.062413
vt 0.403998 0.155403
vt 0.403860 0.167702
vt 0.405309 0.038239
vt 0.635286 0.531138
vt 0.885286 0.531138
vt 0.518115 0.531138
vt 0.611111 0.531138
vt 0.611111 0.547396
vt 0.518115 0.547396
vt 0.505816 0.547396
vt 0.409621 0.547396
vt 0.409621 0.531138
vt 0.505816 0.531138
vt 0.518115 0.335447
vt 0.611111 0.335447
vt 0.611111 0.531138
vt 0.518115 0.531138
vt 0.505816 0.531138
vt 0.409621 0.531138
vt 0.409621 0.335447
vt 0.505816 0.335447
vt 0.988068 0.967709
vt 0.893266 0.967740
vt 0.893266 0.907227
vt 0.988068 0.907258
vt 0.480357 0.907223
vt 0.528587 0.907227
vt 0.528587 0.967739
vt 0.480357 0.967743
vt 0.103137 0.967743
vt 0.103137 0.907224
vt 0.007709 0.967774
vt 0.007709 0.907192
vn -0.577345 -0.577342 0.577364
vn 0.000003 -0.707107 0.707106
vn 0.000000 -0.000003 1.000000
vn -0.707121 -0.000003 0.707093
vn 0.577350 -0.577339 0.577361
vn 0.707123 -0.000003 0.707091
vn 0.577362 0.577334 0.577355
vn 0.000003 0.707108 0.707105
vn -0.577357 0.577337 0.577357
vn 0.000006 1.000000 0.000000
vn -0.707100 0.707114 -0.000001
vn 0.707103 0.707111 -0.000000
vn 0.577345 0.577361 -0.577345
vn 0.000003 0.707112 -0.707102
vn -0.577341 0.577361 -0.577349
vn -0.000013 0.000000 -1.000000
vn -0.707105 0.000000 -0.707109
vn 0.707098 -0.000000 -0.707116
vn 0.577339 -0.577361 -0.577351
vn -0.000010 -0.707111 -0.707102
vn -0.577348 -0.577358 -0.577345
vn 0.000006 -1.000000 -0.000000
vn -0.707105 -0.707109 0.000000
vn 0.707108 -0.707106 0.000000
vn 1.000000 -0.000001 -0.000002
vn -1.000000 -0.000001 -0.000002
vn 1.000000 -0.000001 0.000000
vn 1.000000 -0.000001 0.000000
vn 1.000000 -0.000001 0.000000
vn 1.000000 -0.000001 0.000000
vn 1.000000 -0.000001 0.000000
vn 1.000000 -0.000001 0.000000
vn 1.000000 -0.000001 0.000000
vn 1.000000 -0.000001 0.000000
vn 1.000000 -0.000001 0.000000
vn 1.000000 -0.000001 0.000000
vn 1.000000 -0.000001 0.000000
vn 1.000000 -0.000001 0.000000
vn 1.000000 -0.000001 0.000000
vn 1.000000 -0.000001 0.000000
vn 1.000000 -0.000001 0.000000
vn 1.000000 -0.000001 0.000000
vn 1.000000 -0.000001 0.000000
vn 1.000000 -0.000001 0.000000
vn 1.000000 -0.000001 0.000000
vn 1.000000 -0.000001 0.000000
vn -0.058336 0.084072 0.994751
vn -0.067992 0.185964 0.980201
vn -1.000000 -0.000065 0.000017
vn -0.090591 0.339121 0.936371
vn -0.143868 0.628612 0.764297
vn -0.213455 0.976953 0.000000
vn -0.143811 0.628617 -0.764303
vn -0.090621 0.339120 -0.936368
vn -0.068019 0.185964 -0.980199
vn -0.058336 0.084072 -0.994751
vn -0.055573 0.000000 -0.998455
vn -0.058325 -0.084072 -0.994751
vn -0.068008 -0.185965 -0.980200
vn -0.090621 -0.339121 -0.936368
vn -0.143810 -0.628613 -0.764306
vn -0.213380 -0.976969 0.000000
vn -0.143763 -0.628618 0.764311
vn -0.090585 -0.339123 0.936371
vn -0.068019 -0.185964 0.980199
vn -0.058336 -0.084072 0.994751
vn -0.055573 0.000000 0.998455
vn 0.000000 0.000000 1.000000
vn 0.000000 0.000000 1.000000
vn 0.000000 0.000000 1.000000
vn 0.000000 0.000000 1.000000
vn 0.000000 1.000000 0.000000
vn 0.000000 1.000000 0.000000
vn 0.000000 1.000000 0.000000
vn 0.000000 1.000000 0.000000
vn 0.000000 0.000000 -1.000000
vn 0.000000 0.000000 -1.000000
vn 0.000001 0.000000 -1.000000
vn 0.000000 0.000000 -1.000000
vn 0.000000 -1.000000 0.000000
vn 0.000000 -1.000000 0.000000
vn 0.000000 -1.000000 0.000000
vn 0.000000 -1.000000 0.000000
vn 1.000000 0.000000 0.000000
vn 1.000000 0.000000 0.000000
vn 1.000000 0.000000 0.000000
vn 1.000000 0.000000 0.000000
vn -1.000000 0.000000 0.000000
vn -1.000000 0.000000 0.000000
vn -1.000000 0.000000 0.000000
vn -1.000000 0.000000 0.000000
vn -1.000000 0.000000 0.000000
vn -1.000000 0.000000 0.000000
vn -1.000000 0.000000 0.000000
vn -1.000000 0.000000 0.000000
vn 0.000000 0.000000 -1.000000
vn 0.000000 0.000000 -1.000000
vn 0.000000 0.000000 -1.000000
vn 0.000000 0.000000 -1.000000
vn 1.000000 0.000000 0.000000
vn 1.000000 0.000000 0.000000
vn 1.000000 0.000000 0.000000
vn 1.000000 0.000000 0.000000
vn 0.000000 0.000000 1.000000
vn 0.000000 0.000000 1.000000
vn 0.000000 0.000000 1.000000
vn 0.000000 0.000000 1.000000
vn 0.000000 0.000000 1.000000
vn 0.000000 0.000000 1.000000
vn 0.000000 0.000000 1.000000
vn 0.000000 0.000000 1.000000
vn 0.000000 0.000000 1.000000
vn 0.000000 0.000000 1.000000
vn 0.000000 0.000000 1.000000
vn 0.000000 0.000000 1.000000
vn 0.000000 0.000000 1.000000
vn 0.000000 0.000000 1.000000
vn 0.000000 0.000000 1.000000
vn 0.000000 0.000000 1.000000
vn 0.000000 1.000000 0.000000
vn 0.000000 1.000000 0.000000
vn 0.000000 1.000000 0.000000
vn 0.000000 1.000000 0.000000
vn 0.000000 0.000000 -1.000000
vn 0.000000 0.000000 -1.000000
vn 0.000000 0.000000 -1.000000
vn 0.000000 0.000000 -1.000000
vn 0.000001 0.000000 -1.000000
vn 0.000000 0.000000 -1.000000
vn 0.000000 0.000000 -1.000000
vn 0.000000 0.000000 -1.000000
vn 0.000000 -1.000000 0.000000
vn 0.000000 -1.000000 0.000000
vn 0.000000 -1.000000 0.000000
vn 0.000000 -1.000000 0.000000
vn 0.000000 0.000000 1.000000
vn 0.000000 0.000000 1.000000
vn 0.000000 0.000000 1.000000
vn 0.000000 0.000000 1.000000
vn 0.000000 1.000000 0.000000
vn 0.000000 1.000000 0.000000
vn 0.000000 1.000000 0.000000
vn 0.000000 1.000000 0.000000
vn 0.000000 0.000000 -1.000000
vn 0.000000 0.000000 -1.000000
vn 0.000000 0.000000 -1.000000
vn 0.000000 0.000000 -1.000000
vn 0.000000 0.000000 -1.000000
vn 0.000001 0.000000 -1.000000
vn 0.000001 0.000000 -1.000000
vn 0.000000 0.000000 -1.000000
vn 0.000000 -1.000000 0.000000
vn 0.000000 -1.000000 0.000000
vn 0.000000 -1.000000 0.000000
vn 0.000000 -1.000000 0.000000
vn -1.000000 0.000000 0.000000
vn -1.000000 0.000000 0.000000
vn 0.000000 0.000000 -1.000000
vn 0.000000 0.000000 -1.000000
vn 0.000000 0.000000 -1.000000
vn 0.000000 0.000000 -1.000000
vn 0.000000 0.000000 -1.000000
vn 0.000000 0.000000 -1.000000
vn 1.000000 0.000000 0.000000
vn 1.000000 0.000000 0.000000
vn 0.000000 0.000000 1.000000
vn 0.000000 0.000000 1.000000
vn 0.000000 0.000000 1.000000
vn 0.000000 0.000000 1.000000
vn 0.000000 0.000000 1.000000
vn 0.000000 0.000000 1.000000
vn 0.000000 0.000000 1.000000
vn 0.000000 0.000000 1.000000
vn 0.000000 0.000000 1.000000
vn 0.000000 0.000000 1.000000
vn 0.000000 0.000000 1.000000
vn 0.000000 0.000000 1.000000
vn 0.000000 0.000000 1.000000
vn 0.000000 0.000000 1.000000
vn 0.000000 0.000000 1.000000
vn 0.000000 0.000000 1.000000
vn 0.000000 0.000000 1.000000
vn 0.000000 0.000000 1.000000
vn 0.000000 0.000000 1.000000
vn 0.000000 0.000000 1.000000
vn 1.000000 0.000000 0.000000
vn 1.000000 0.000000 0.000000
vn 0.000000 1.000000 0.000000
vn 0.000000 1.000000 0.000000
vn 0.000000 1.000000 0.000000
vn 0.000000 1.000000 0.000000
vn 0.000000 1.000000 0.000000
vn 0.000000 1.000000 0.000000
vn -1.000000 0.000000 0.000000
vn -1.000000 0.000000 0.000000
vn 0.000000 -1.000000 0.000000
vn 0.000000 -1.000000 0.000000
vn 0.000000 -1.000000 0.000000
vn 0.000000 -1.000000 0.000000
vn 0.000000 -1.000000 0.000000
vn 0.000000 -1.000000 0.000000
vn 0.000000 -1.000000 0.000000
vn 0.000000 -1.000000 0.000000
vn 0.000000 -1.000000 0.000000
vn 0.000000 -1.000000 0.000000
vn 0.000000 -1.000000 0.000000
vn 0.000000 -1.000000 0.000000
vn 0.000000 1.000000 0.000000
vn 0.000000 1.000000 0.000000
vn 0.000000 1.000000 0.000000
vn 0.000000 1.000000 0.000000
vn -1.000000 0.000000 0.000000
vn -1.000000 0.000000 0.000000
vn -1.000000 0.000000 0.000000
vn -1.000000 0.000000 0.000000
vn 0.000000 -1.000000 0.000000
vn 0.000000 -1.000000 0.000000
vn 0.000000 -1.000000 0.000000
vn 0.000000 -1.000000 0.000000
vn 0.000000 -1.000000 0.000000
vn 0.000000 -1.000000 0.000000
vn 0.000000 -1.000000 0.000000
vn 0.000000 -1.000000 0.000000
vn 1.000000 0.000000 0.000000
vn 1.000000 0.000000 0.000000
vn 1.000000 0.000000 0.000000
vn 1.000000 0.000000 0.000000
vn 0.000000 1.000000 0.000000
vn 0.000000 1.000000 0.000000
vn 0.000000 1.000000 0.000000
vn 0.000000 1.000000 0.000000
s 1
g SmallCabet3
usemtl initialShadingGroup
f 1/1/1 15/21/2 21/15/3 18/25/4
f 15/21/2 2/3/5 16/23/6 21/15/3
f 21/15/3 16/23/6 4/6/7 17/24/8
f 18/25/4 21/15/3 17/24/8 3/5/9
f 3/5/9 17/24/8 22/16/10 9/29/11
f 17/24/8 4/6/7 19/26/12 22/16/10
f 22/16/10 19/26/12 6/9/13 20/28/14
f 9/29/11 22/16/10 20/28/14 5/7/15
f 5/7/15 20/28/14 23/17/16 12/34/17
f 20/28/14 6/9/13 10/31/18 23/17/16
f 23/17/16 10/31/18 8/13/19 11/33/20
f 12/34/17 23/17/16 11/33/20 7/11/21
f 7/11/21 11/33/20 24/18/22 14/38/23
f 11/33/20 8/13/19 13/36/24 24/18/22
f 24/18/22 13/36/24 2/4/5 15/22/2
f 14/38/23 24/18/22 15/22/2 1/2/1
f 2/3/5 13/37/24 25/19/25 16/23/6
f 13/37/24 8/14/19 10/32/18 25/19/25
f 25/19/25 10/32/18 6/10/13 19/27/12
f 16/23/6 25/19/25 19/27/12 4/6/7
f 7/12/21 14/39/23 26/20/26 12/35/17
f 14/39/23 1/1/1 18/25/4 26/20/26
f 26/20/26 18/25/4 3/5/9 9/30/11
f 12/35/17 26/20/26 9/30/11 5/8/15
s off
f 27/40/27 46/41/28 45/42/29 44/43/30 43/44/31 42/45/32 41/46/33 40/47/34 39/48/35 38/49/36 37/50/37 36/51/38 35/52/39 34/53/40 33/54/41 32/55/42 31/56/43 30/57/44 29/58/45 28/59/46
s 2
f 27/60/47 28/61/48 47/62/49
f 28/61/48 29/63/50 47/62/49
f 29/63/50 30/64/51 47/62/49
f 30/64/51 31/65/52 47/62/49
f 31/65/52 32/66/53 47/62/49
f 32/66/53 33/67/54 47/62/49
f 33/67/54 34/68/55 47/62/49
f 34/68/55 35/69/56 47/62/49
f 35/69/56 36/70/57 47/62/49
f 36/70/57 37/71/58 47/62/49
f 37/71/58 38/72/59 47/62/49
f 38/72/59 39/73/60 47/62/49
f 39/73/60 40/74/61 47/62/49
f 40/74/61 41/75/62 47/62/49
f 41/75/62 42/76/63 47/62/49
f 42/76/63 43/77/64 47/62/49
f 43/77/64 44/78/65 47/62/49
f 44/78/65 45/79/66 47/62/49
f 45/79/66 46/80/67 47/62/49
f 46/80/67 27/81/47 47/62/49
s 3
f 48/82/68 66/83/69 79/84/70 72/85/71
s 4
f 50/86/72 68/87/73 69/88/74 52/89/75
s 5
f 73/90/76 74/91/77 71/92/78 54/93/79
s 6
f 54/93/80 71/92/81 66/94/82 48/95/83
s 7
f 49/96/84 55/97/85 76/98/86 77/99/87
s 8
f 54/100/88 48/82/89 72/85/90 73/101/91
f 57/102/92 56/103/93 50/104/94 52/105/95
s 5
f 52/89/96 69/88/97 70/106/98 57/107/99
s 7
f 59/108/100 58/109/101 53/110/102 51/111/103
s off
f 109/112/104 108/113/105 110/114/106 111/115/107 112/116/108 113/117/109 114/118/110 115/119/111 116/120/112 117/121/113 118/122/114 119/123/115
s 3
f 77/99/116 78/124/117 60/125/118 49/96/119
s 4
f 63/126/120 62/127/121 51/128/122 53/129/123
s 5
f 64/130/124 63/126/125 53/129/126 58/131/127
f 65/132/128 75/133/129 76/134/130 55/135/131
s 6
f 60/136/132 65/132/133 55/135/134 49/137/135
s 3
f 101/138/136 60/125/118 78/124/117 100/139/137 90/140/138 79/84/70 66/83/69 91/141/139
s 4
f 107/142/140 62/127/121 63/126/120 106/143/141 96/144/142 69/88/74 68/87/73 97/145/143
s 5
f 106/143/144 63/126/125 64/130/124 105/146/145 95/147/146 70/106/98 69/88/97 96/144/147
f 103/148/148 75/133/129 65/132/128 102/149/149 92/150/150 71/92/78 74/91/77 93/151/151
s 6
f 102/149/152 65/132/133 60/136/132 101/152/153 91/153/154 66/94/82 71/92/81 92/150/155
s 8
f 80/154/156 81/155/157 56/103/93 57/102/92
s 5
f 57/107/99 70/106/98 87/156/158 80/157/159
f 105/146/145 64/130/124 86/158/160 104/159/161 94/160/162 87/156/158 70/106/98 95/147/146
f 85/161/163 86/158/160 64/130/124 58/131/127
s 7
f 84/162/164 85/163/165 58/109/101 59/108/100
s 3
f 99/164/166 83/165/167 84/162/168 59/108/169 61/166/170 98/167/171 88/168/172 67/169/173 56/103/174 81/155/175 82/170/176 89/171/177
s 8
f 73/101/91 72/85/90 81/155/157 80/154/156
s 3
f 72/85/71 79/84/70 82/170/176 81/155/175
s off
f 121/172/178 120/173/179 122/174/180 123/175/181 124/176/182 125/177/183 126/178/184 127/179/185
s 3
f 84/162/168 83/165/167 78/124/117 77/99/116
s 7
f 77/99/87 76/98/86 85/163/165 84/162/164
s 5
f 76/134/130 75/133/129 86/158/160 85/161/163
f 104/159/161 86/158/160 75/133/129 103/148/148 93/151/151 74/91/77 87/156/158 94/160/162
f 80/157/159 87/156/158 74/91/77 73/90/76
s 7
f 59/108/100 51/111/103 111/115/186 110/114/187
s 4
f 51/180/122 62/181/121 112/182/188 111/183/189
f 114/184/190 113/185/191 112/182/188 62/181/121 107/186/140 97/187/143 68/188/73 115/189/192
f 68/188/73 50/190/72 116/191/193 115/189/192
s 8
f 50/104/94 56/103/93 117/121/194 116/120/195
s off
f 119/123/196 118/122/197 117/121/198 56/103/199 67/169/200 88/168/201 98/167/202 61/166/203 59/108/204 110/114/205 108/113/206 109/112/207
s 13
f 100/139/208 78/124/209 120/173/210 121/172/211
s off
f 78/124/212 83/165/213 122/174/214 120/173/215
f 124/176/216 123/175/217 122/174/218 83/165/219 99/164/220 89/171/221 82/170/222 125/177/223
f 82/170/224 79/84/225 126/178/226 125/177/227
s 13
f 79/84/228 90/140/229 127/179/230 126/178/231
f 90/140/229 100/139/208 121/172/211 127/179/230
