# This file uses centimeters as units for non-parametric coordinates.

mtllib WallOven2.mtl
g default
v 874.390887 200.052892 -1014.224976
v 733.824847 200.052892 -1014.224976
v 733.824847 200.052892 -1047.541382
v 874.390887 200.052892 -1047.541382
v 891.607867 -9.979518 -1014.224976
v 891.607867 -9.979518 -1054.224976
v 891.607867 248.938817 -1054.224976
v 891.607867 248.938817 -1014.224976
v 716.607867 248.938817 -1014.224976
v 716.607867 248.938817 -1054.224976
v 874.390887 -9.979518 -1047.541382
v 874.390887 -9.979518 -1014.224976
v 716.607867 -9.979518 -1054.224976
v 733.824847 -9.979518 -1047.541382
v 716.607867 -9.979518 -1014.224976
v 733.824847 -9.979518 -1014.224976
v 879.229144 -9.979518 -1014.224976
v 727.588641 -9.979518 -1014.224976
v 880.360125 207.149602 -1014.224976
v 728.956439 207.425496 -1014.224976
v 879.229144 -9.979518 -1009.431396
v 880.360125 207.149602 -1009.431396
v 728.956439 207.425496 -1009.431396
v 727.588641 -9.979518 -1009.431396
v 733.824847 -9.979518 -1009.431396
v 733.824847 200.052892 -1009.431396
v 874.390887 200.052892 -1009.431396
v 874.390887 -9.979518 -1009.431396
vt 0.717728 0.599819
vt 0.717728 0.395476
vt 0.766153 0.395477
vt 0.054516 0.702458
vt 0.226298 0.682097
vt 0.222022 0.652517
vt 0.300801 0.939190
vt 0.300137 0.987242
vt 0.559080 0.942759
vt 0.511028 0.942095
vt 0.054516 0.911063
vt 0.959226 0.173698
vt 0.222022 0.223731
vt 0.766153 0.090198
vt 0.124014 0.223752
vt 0.717728 0.090198
vt 0.854988 0.595783
vt 0.952837 0.469603
vt 0.952837 0.671422
vt 0.952837 0.961219
vt 0.710761 0.090198
vt 0.710761 0.395476
vt 0.710761 0.599819
vt 0.952837 0.173698
vt 0.959226 0.180195
vt 0.959226 0.961219
vt 0.959226 0.671422
vt 0.959226 0.469603
vt 0.124014 0.250655
vt 0.124014 0.265938
vt 0.124014 0.622207
vt 0.257047 0.627487
vt 0.124014 0.610353
vt 0.020035 0.682097
vt 0.205646 0.265916
vt 0.020029 0.987271
vt 0.205646 0.610332
vt 0.226294 0.987271
vt 0.034584 0.938342
vt 0.032976 0.682097
vt 0.213039 0.938016
vt 0.211707 0.682097
vt 0.710761 0.905099
vt 0.952837 0.180195
vt 0.717728 0.905099
vt 0.585273 0.595783
vt 0.952837 0.969541
vt 0.959226 0.969541
vt 0.588232 0.979650
vt 0.856085 0.979163
vt 0.846445 0.595783
vt 0.845555 0.966633
vt 0.596821 0.966633
vt 0.596284 0.595783
vt 0.194127 0.911063
vt 0.194127 0.702458
vt 0.766153 0.599819
vt 0.766153 0.905099
vt 0.124014 0.652538
vt 0.563379 0.631721
vt 0.515327 0.631057
vt 0.305099 0.628151
vt 0.510364 0.990147
vt 0.252749 0.938526
vn 0.000000 -1.000000 0.000000
vn 0.000000 -1.000000 0.000000
vn 0.000000 -1.000000 0.000000
vn 0.000000 -1.000000 0.000000
vn 1.000000 0.000000 0.000000
vn 1.000000 0.000000 0.000000
vn 1.000000 0.000000 0.000000
vn 1.000000 0.000000 0.000000
vn 0.000000 1.000000 0.000000
vn 0.000000 1.000000 0.000000
vn 0.000000 1.000000 0.000000
vn 0.000000 1.000000 0.000000
vn -1.000000 0.000000 0.000000
vn -1.000000 0.000000 0.000000
vn -1.000000 0.000000 0.000000
vn -1.000000 0.000000 0.000000
vn 0.000000 0.000000 -1.000000
vn 0.000000 0.000000 -1.000000
vn 0.000000 0.000000 -1.000000
vn 0.000000 0.000000 -1.000000
vn 0.000000 0.000000 1.000000
vn 0.000000 0.000000 1.000000
vn 0.000000 0.000000 1.000000
vn 0.000000 0.000000 1.000000
vn -1.000000 0.000000 0.000000
vn -1.000000 0.000000 0.000000
vn -1.000000 0.000000 0.000000
vn -1.000000 0.000000 0.000000
vn 1.000000 0.000000 0.000000
vn 1.000000 0.000000 0.000000
vn 1.000000 0.000000 0.000000
vn 1.000000 0.000000 0.000000
vn 0.000000 0.000000 1.000000
vn 0.000000 0.000000 1.000000
vn 0.000000 0.000000 1.000000
vn 0.000000 0.000000 1.000000
vn 0.000000 0.000000 1.000000
vn 0.000000 0.000000 1.000000
vn 0.000000 0.000000 1.000000
vn 0.000000 0.000000 1.000000
vn 0.000000 -1.000000 -0.000000
vn 0.000000 -1.000000 -0.000000
vn 0.000000 -1.000000 -0.000000
vn 0.000000 -1.000000 -0.000000
vn 0.000000 -1.000000 -0.000000
vn 0.000000 -1.000000 -0.000000
vn 0.000000 -1.000000 -0.000000
vn 0.000000 -1.000000 -0.000000
vn 0.000000 -1.000000 -0.000000
vn 0.000000 -1.000000 -0.000000
vn 0.000000 0.000000 1.000000
vn 0.000000 0.000000 1.000000
vn 0.000000 0.000000 1.000000
vn 0.000000 0.000000 1.000000
vn 0.000000 0.000000 1.000000
vn 0.000000 0.000000 1.000000
vn 0.000000 0.000000 1.000000
vn 0.000000 0.000000 1.000000
vn 0.999986 -0.005209 0.000000
vn 0.999986 -0.005209 0.000000
vn 0.999986 -0.005209 0.000000
vn 0.999986 -0.005209 0.000000
vn 0.001822 0.999998 0.000000
vn 0.001822 0.999998 0.000000
vn 0.001822 0.999998 0.000000
vn 0.001822 0.999998 0.000000
vn -0.999980 0.006291 0.000000
vn -0.999980 0.006291 0.000000
vn -0.999980 0.006291 0.000000
vn -0.999980 0.006291 0.000000
vn 0.000000 -1.000000 0.000000
vn 0.000000 -1.000000 0.000000
vn 1.000000 0.000000 0.000000
vn 1.000000 0.000000 0.000000
vn 0.000000 -1.000000 0.000000
vn 0.000000 -1.000000 0.000000
vn -1.000000 0.000000 0.000000
vn -1.000000 0.000000 0.000000
vn 0.000000 -1.000000 0.000000
vn 0.000000 -1.000000 0.000000
s 1
g Bakesmith_Models_1:WallOven
usemtl initialShadingGroup
f 1/1/1 2/2/2 3/3/3 4/57/4
s off
f 5/32/5 6/62/6 7/7/7 8/64/8
f 9/63/9 8/8/10 7/7/11 10/10/12
s 2
f 11/58/13 12/45/14 1/1/15 4/57/16
s off
f 10/10/17 7/7/18 6/62/19 13/61/20
f 14/55/21 11/11/22 4/4/23 3/56/24
f 13/61/25 15/60/26 9/9/27 10/10/28
s 3
f 2/2/29 16/16/30 14/14/31 3/3/32
s off
f 21/17/33 22/50/34 23/49/35 24/46/36 25/54/37 26/53/38 27/52/39 28/51/40
s 4
f 13/13/41 6/6/42 5/59/43 17/31/44 12/33/45 11/37/46 14/35/47 16/30/48 18/29/49 15/15/50
s off
f 15/34/51 18/40/52 20/39/53 19/41/54 17/42/55 5/5/56 8/38/57 9/36/58
f 17/25/59 19/28/60 22/18/61 21/44/62
f 19/28/63 20/27/64 23/19/65 22/18/66
f 20/27/67 18/26/68 24/20/69 23/19/70
s 4
f 18/26/49 16/48/48 25/47/71 24/20/72
s 3
f 16/16/30 2/2/29 26/22/73 25/21/74
s 1
f 2/2/2 1/1/1 27/23/75 26/22/76
s 2
f 1/1/15 12/45/14 28/43/77 27/23/78
s 4
f 12/12/45 17/25/44 21/44/79 28/24/80
