# This file uses centimeters as units for non-parametric coordinates.

mtllib WallEntry2.mtl
g default
v 345.355482 -12.398505 -1065.163096
v 308.945570 -12.398505 -1065.163096
v 308.945570 -12.398505 -1069.163096
v 345.355482 -12.398505 -1069.163096
v 345.355482 -12.398505 -1065.163096
v 308.945570 -12.398505 -1065.163096
v 308.945570 -12.398505 -1025.163096
v 308.945570 -12.398505 -1025.163096
v 345.355482 -12.398505 -1025.163096
v 345.355482 -12.398505 -1025.163096
v 345.355482 -12.398505 -1021.163157
v 308.945570 -12.398505 -1021.163157
v 308.945570 287.601434 -1065.163096
v 308.945570 287.601434 -1069.163096
v 446.426039 -12.398505 -1069.163096
v 483.945448 -12.398505 -1069.163096
v 483.945448 -12.398505 -1065.163096
v 446.426039 -12.398505 -1065.163096
v 483.945448 -12.398505 -1065.163096
v 446.426039 -12.398505 -1065.163096
v 308.945570 287.601434 -1025.163096
v 483.945448 -12.398505 -1025.163096
v 446.426039 -12.398505 -1025.163096
v 308.945570 287.601434 -1021.163157
v 483.945448 -12.398505 -1025.163096
v 446.426039 -12.398505 -1025.163096
v 483.945448 -12.398505 -1021.163157
v 446.426039 -12.398505 -1021.163157
v 353.196791 137.547174 -1069.163096
v 353.196791 287.601434 -1069.163096
v 396.339979 287.601434 -1069.163096
v 396.339979 137.547174 -1069.163096
v 308.945570 287.601434 -1025.163096
v 308.945570 287.601434 -1065.163096
v 353.196791 287.601434 -1065.163096
v 353.196791 287.601434 -1065.163096
v 483.945448 287.601434 -1065.163096
v 483.945448 287.601434 -1069.163096
v 483.945448 287.601434 -1065.163096
v 440.880263 287.601434 -1069.163096
v 440.880263 137.547174 -1069.163096
v 396.339979 137.547174 -1021.163157
v 396.339979 287.601434 -1021.163157
v 353.196791 287.601434 -1021.163157
v 353.196791 137.547174 -1021.163157
v 353.196791 287.601434 -1025.163096
v 483.945448 287.601434 -1025.163096
v 353.196791 287.601434 -1025.163096
v 396.339979 287.601434 -1065.163096
v 483.945448 287.601434 -1025.163096
v 396.339979 287.601434 -1065.163096
v 483.945448 287.601434 -1021.163157
v 440.880263 137.547174 -1021.163157
v 440.880263 287.601434 -1021.163157
v 353.196791 325.101434 -1025.163096
v 353.196791 325.101434 -1065.163096
v 396.339979 325.101434 -1065.163096
v 396.339979 287.601434 -1025.163096
v 396.339979 287.601434 -1025.163096
v 440.880263 287.601434 -1065.163096
v 440.880263 287.601434 -1065.163096
v 396.339979 325.101434 -1025.163096
v 440.880263 287.601434 -1025.163096
v 440.880263 287.601434 -1025.163096
v 440.880263 325.101434 -1025.163096
v 440.880263 325.101434 -1065.163096
v 483.945448 325.101434 -1065.163096
v 483.945448 325.101434 -1025.163096
v 345.355482 137.547174 -1069.163096
v 345.355482 137.547174 -1021.163157
v 446.426039 137.547174 -1069.163096
v 446.426039 137.547174 -1021.163157
vt 0.375850 0.055426
vt 0.529925 0.969748
vt 0.538706 0.969748
vt 0.910813 0.617666
vt 0.375852 0.055427
vt 0.379202 0.832720
vt 0.243599 0.832720
vt 0.442111 0.969747
vt 0.320728 0.054178
vt 0.320728 0.054181
vt 0.315215 0.054058
vt 0.771292 0.256584
vt 0.162092 0.978638
vt 0.173263 0.978638
vt 0.368885 0.608108
vt 0.753868 0.617666
vt 0.701280 0.302327
vt 0.162092 0.613633
vt 0.162092 0.613633
vt 0.392360 0.648519
vt 0.050383 0.978634
vt 0.613466 0.302329
vt 0.050383 0.613633
vt 0.771292 0.581714
vt 0.050383 0.613633
vt 0.256757 0.648519
vt 0.604685 0.302329
vt 0.920289 0.256584
vt 0.376452 0.272994
vt 0.901933 0.957399
vt 0.173263 0.732851
vt 0.853076 0.787471
vt 0.050383 0.794579
vt 0.162092 0.794579
vt 0.162092 0.853662
vt 0.685818 0.281872
vt 0.162092 0.489941
vt 0.753868 0.957399
vt 0.008809 0.343519
vt 0.173263 0.608852
vt 0.802637 0.787471
vt 0.308962 0.330955
vt 0.039213 0.732852
vt 0.039213 0.853658
vt 0.819250 0.419090
vt 0.050383 0.670999
vt 0.188163 0.428920
vt 0.050383 0.853658
vt 0.162092 0.732851
vt 0.050383 0.489945
vt 0.693487 0.013767
vt 0.039213 0.489945
vt 0.307576 0.392335
vt 0.914279 0.581714
vt 0.597479 0.194176
vt 0.688252 0.196772
vt 0.691053 0.098867
vt 0.050383 0.794983
vt 0.050383 0.732852
vt 0.162092 0.608852
vt 0.094165 0.157093
vt 0.600280 0.096270
vt 0.050383 0.670595
vt 0.050383 0.608856
vt 0.186998 0.243036
vt 0.094708 0.243615
vt 0.095331 0.342977
vt 0.187621 0.342398
vt 0.376696 0.262188
vt 0.310549 0.260695
vt 0.373551 0.401471
vt 0.307403 0.399978
vt 0.613466 0.960932
vt 0.186455 0.156514
vt 0.162092 0.670595
vt 0.162092 0.732789
vt 0.515181 0.093836
vt 0.162092 0.794983
vt 0.595045 0.279275
vt 0.162092 0.670999
vt 0.920289 0.419090
vt 0.243197 0.648519
vt 0.914279 0.419090
vt 0.810753 0.419090
vt 0.310305 0.271501
vt 0.810752 0.256584
vt 0.039213 0.608856
vt 0.960952 0.581714
vt 0.866008 0.419090
vt 0.866008 0.581714
vt 0.960952 0.256584
vt 0.433330 0.311145
vt 0.819250 0.581714
vt 0.230039 0.832720
vt 0.039213 0.978634
vt 0.442111 0.311145
vt 0.433330 0.969747
vt 0.529925 0.311144
vt 0.538706 0.311144
vt 0.392763 0.832719
vt 0.243599 0.832720
vt 0.916666 0.000000
vt 0.796356 0.787471
vt 0.373724 0.393829
vt 0.796356 0.617666
vt 0.910813 0.787471
vt 0.392763 0.956153
vt 0.901933 0.787471
vt 0.710061 0.960934
vt 0.802637 0.957399
vt 0.375110 0.332449
vt 0.853076 0.957399
vt 0.405921 0.775714
vt 0.173263 0.853662
vt 0.952045 0.957399
vt 0.952045 0.617666
vt 0.604685 0.960932
vt 0.243197 0.775713
vt 0.613466 0.960932
vt 0.613466 0.302329
vt 0.050383 0.732789
vt 0.256757 0.775713
vt 0.701280 0.960932
vt 0.701280 0.302329
vt 0.173263 0.489941
vt 0.701280 0.960934
vt 0.710061 0.302327
vt 0.392360 0.775714
vt 0.302737 0.606614
vt 0.405921 0.648519
vt 0.230039 0.956152
vt 0.381363 0.055552
vt 0.308249 0.606740
vt 0.308251 0.606739
vt 0.363373 0.607988
vt 0.363374 0.607985
vt 0.083332 0.000000
vt 0.243599 0.956152
vt 0.916666 0.000000
vt 0.379202 0.956153
vt 0.050383 0.613633
vt 0.256757 0.775713
vt 0.256757 0.648519
vt 0.162092 0.613633
vt 0.050383 0.613633
vt 0.392360 0.775713
vt 0.392360 0.648519
vt 0.162092 0.613633
vt 0.243599 0.956152
vt 0.083332 0.000000
vt 0.379202 0.956152
vt 0.083332 0.000000
vt 0.083332 0.000000
vt 0.916666 0.000000
vt 0.916666 0.000000
vt 0.379202 0.832719
vt 0.274143 0.341856
vt 0.095873 0.429499
vt 0.008186 0.244157
vt 0.273520 0.242494
vt 0.602714 0.011171
vt 0.776152 0.101301
vt 0.773352 0.199207
vt 0.512380 0.191741
vn 0.000000 -1.000000 0.000000
vn 0.000000 -1.000000 0.000000
vn 0.000000 -1.000000 0.000000
vn 0.000000 -1.000000 0.000000
vn 0.000000 0.000000 0.000000
vn 0.000000 0.000000 0.000000
vn 0.000000 0.000000 0.000000
vn 0.000000 0.000000 0.000000
vn 0.000000 0.000000 0.000000
vn 0.000000 0.000000 0.000000
vn 0.000000 0.000000 0.000000
vn 0.000000 0.000000 0.000000
vn 0.000000 -1.000000 0.000000
vn 0.000000 -1.000000 0.000000
vn 0.000000 -1.000000 0.000000
vn 0.000000 -1.000000 0.000000
vn 0.000000 0.000000 0.000000
vn 0.000000 0.000000 0.000000
vn 0.000000 0.000000 0.000000
vn 0.000000 0.000000 0.000000
vn 0.000000 -1.000000 0.000000
vn 0.000000 -1.000000 0.000000
vn 0.000000 -1.000000 0.000000
vn 0.000000 -1.000000 0.000000
vn -1.000000 0.000000 0.000000
vn -1.000000 0.000000 0.000000
vn -1.000000 0.000000 0.000000
vn -1.000000 0.000000 0.000000
vn 0.000000 -1.000000 0.000000
vn 0.000000 -1.000000 0.000000
vn 0.000000 -1.000000 0.000000
vn 0.000000 -1.000000 0.000000
vn 0.000000 0.000000 0.000000
vn 0.000000 0.000000 0.000000
vn 0.000000 0.000000 0.000000
vn 0.000000 0.000000 0.000000
vn -1.000000 0.000000 0.000000
vn -1.000000 0.000000 0.000000
vn 0.000000 -1.000000 0.000000
vn 0.000000 -1.000000 0.000000
vn 0.000000 -1.000000 0.000000
vn 0.000000 -1.000000 0.000000
vn -1.000000 0.000000 0.000000
vn -1.000000 0.000000 0.000000
vn 0.000000 0.000000 0.000000
vn 0.000000 0.000000 0.000000
vn 0.000000 0.000000 0.000000
vn 0.000000 0.000000 0.000000
vn 0.000000 -1.000000 0.000000
vn 0.000000 -1.000000 0.000000
vn 0.000000 -1.000000 0.000000
vn 0.000000 -1.000000 0.000000
vn 0.000000 0.000000 -1.000000
vn 0.000000 0.000000 -1.000000
vn 0.000000 0.000000 -1.000000
vn 0.000000 0.000000 -1.000000
vn 0.000000 0.000000 0.000000
vn 0.000000 0.000000 0.000000
vn 0.000000 0.000000 0.000000
vn 0.000000 0.000000 0.000000
vn 0.000000 1.000000 0.000000
vn 0.000000 1.000000 0.000000
vn 0.000000 1.000000 0.000000
vn 0.000000 1.000000 0.000000
vn 0.000000 0.000000 0.000000
vn 0.000000 0.000000 0.000000
vn 0.000000 0.000000 0.000000
vn 0.000000 0.000000 0.000000
vn 1.000000 0.000000 0.000000
vn 1.000000 0.000000 0.000000
vn 1.000000 0.000000 0.000000
vn 1.000000 0.000000 0.000000
vn 0.000000 0.000000 0.000000
vn 0.000000 0.000000 0.000000
vn 0.000000 0.000000 0.000000
vn 0.000000 0.000000 0.000000
vn 0.000000 0.000000 -1.000000
vn 0.000000 0.000000 -1.000000
vn 0.000000 0.000000 1.000000
vn 0.000000 0.000000 1.000000
vn -0.000000 0.000000 1.000000
vn -0.000000 0.000000 1.000000
vn 0.000000 1.000000 0.000000
vn 0.000000 1.000000 0.000000
vn 0.000000 1.000000 0.000000
vn 0.000000 1.000000 0.000000
vn 1.000000 0.000000 0.000000
vn 1.000000 0.000000 0.000000
vn 1.000000 0.000000 0.000000
vn 1.000000 0.000000 0.000000
vn 0.000000 0.000000 0.000000
vn 0.000000 0.000000 0.000000
vn 0.000000 0.000000 0.000000
vn 0.000000 0.000000 0.000000
vn 0.000000 1.000000 0.000000
vn 0.000000 1.000000 0.000000
vn 0.000000 1.000000 0.000000
vn 0.000000 1.000000 0.000000
vn 0.000000 1.000000 0.000000
vn 0.000000 1.000000 0.000000
vn 0.000000 0.000000 0.000000
vn 0.000000 0.000000 0.000000
vn 0.000000 0.000000 0.000000
vn 0.000000 0.000000 0.000000
vn 0.000000 0.000000 0.000000
vn 0.000000 0.000000 0.000000
vn 0.000000 0.000000 0.000000
vn 0.000000 0.000000 0.000000
vn 1.000000 0.000000 0.000000
vn 1.000000 0.000000 0.000000
vn 1.000000 0.000000 0.000000
vn 1.000000 0.000000 0.000000
vn 0.000000 0.000000 1.000000
vn 0.000000 0.000000 1.000000
vn -1.000000 0.000000 0.000000
vn -1.000000 0.000000 0.000000
vn -1.000000 0.000000 0.000000
vn -1.000000 0.000000 0.000000
vn 0.000000 0.000000 -1.000000
vn 0.000000 0.000000 -1.000000
vn 0.000000 0.000000 -1.000000
vn 0.000000 0.000000 -1.000000
vn 0.000000 0.000000 0.000000
vn 0.000000 0.000000 0.000000
vn 0.000000 0.000000 0.000000
vn 0.000000 0.000000 0.000000
vn 0.000000 1.000000 0.000000
vn 0.000000 1.000000 0.000000
vn 0.000000 1.000000 0.000000
vn 0.000000 1.000000 0.000000
vn 0.000000 0.000000 0.000000
vn 0.000000 0.000000 0.000000
vn 0.000000 0.000000 0.000000
vn 0.000000 0.000000 0.000000
vn 0.000000 1.000000 0.000000
vn 0.000000 1.000000 0.000000
vn 0.000000 1.000000 0.000000
vn 0.000000 1.000000 0.000000
vn 0.000000 0.000000 1.000000
vn 0.000000 0.000000 1.000000
vn 0.000000 0.000000 1.000000
vn 0.000000 0.000000 1.000000
vn 1.000000 0.000000 0.000000
vn 1.000000 0.000000 0.000000
vn 1.000000 0.000000 0.000000
vn 1.000000 0.000000 0.000000
vn 0.000000 1.000000 0.000000
vn 0.000000 1.000000 0.000000
vn 0.000000 1.000000 0.000000
vn 0.000000 1.000000 0.000000
vn 0.000000 0.000000 0.000000
vn 0.000000 0.000000 0.000000
vn 0.000000 0.000000 0.000000
vn 0.000000 0.000000 0.000000
vn 0.000000 1.000000 0.000000
vn 0.000000 1.000000 0.000000
vn 0.000000 1.000000 0.000000
vn 0.000000 1.000000 0.000000
vn 0.000000 0.000000 0.000000
vn 0.000000 0.000000 0.000000
vn 0.000000 0.000000 0.000000
vn 0.000000 0.000000 0.000000
vn -1.000000 0.000000 0.000000
vn -1.000000 0.000000 0.000000
vn -1.000000 0.000000 0.000000
vn -1.000000 0.000000 0.000000
vn 0.000000 0.000000 -1.000000
vn 0.000000 0.000000 -1.000000
vn 0.000000 0.000000 -1.000000
vn 0.000000 0.000000 -1.000000
vn 0.000000 0.000000 0.000000
vn 0.000000 0.000000 0.000000
vn 0.000000 0.000000 0.000000
vn 0.000000 0.000000 0.000000
vn 0.000000 1.000000 0.000000
vn 0.000000 1.000000 0.000000
vn 0.000000 1.000000 0.000000
vn 0.000000 1.000000 0.000000
vn 0.000000 1.000000 0.000000
vn 0.000000 1.000000 0.000000
vn 0.000000 0.000000 1.000000
vn 0.000000 0.000000 1.000000
vn 0.000000 0.000000 1.000000
vn 0.000000 0.000000 1.000000
vn 1.000000 0.000000 0.000000
vn 1.000000 0.000000 0.000000
vn 0.000000 0.000000 -1.000000
vn 0.000000 0.000000 -1.000000
vn 0.000000 0.000000 -1.000000
vn 0.000000 0.000000 -1.000000
vn -0.000000 0.000000 1.000000
vn -0.000000 0.000000 1.000000
vn -0.000000 0.000000 1.000000
vn -0.000000 0.000000 1.000000
vn 0.000000 0.000000 -1.000000
vn 0.000000 0.000000 -1.000000
vn 0.000000 0.000000 -1.000000
vn 0.000000 0.000000 -1.000000
vn 0.000001 0.000000 1.000000
vn 0.000001 0.000000 1.000000
vn 0.000001 0.000000 1.000000
vn 0.000001 0.000000 1.000000
vn 1.000000 0.000000 0.000000
vn 1.000000 0.000000 0.000000
vn 0.000000 0.000000 0.000000
vn 0.000000 0.000000 0.000000
vn 0.000000 0.000000 0.000000
vn 0.000000 0.000000 0.000000
vn 1.000000 0.000000 0.000000
vn 1.000000 0.000000 0.000000
vn -1.000000 0.000000 0.000000
vn -1.000000 0.000000 0.000000
vn -0.000000 0.000000 0.000000
vn -0.000000 0.000000 0.000000
vn -0.000000 0.000000 0.000000
vn -0.000000 0.000000 0.000000
vn -1.000000 0.000000 0.000000
vn -1.000000 0.000000 0.000000
vn 0.000000 -1.000000 -0.000001
vn 0.000000 -1.000000 -0.000001
vn 0.000000 -1.000000 -0.000001
vn 0.000000 -1.000000 -0.000001
vn 0.000000 -1.000000 -0.000001
vn 0.000000 -1.000000 -0.000001
vn 0.000000 -1.000000 -0.000001
vn 0.000000 -1.000000 -0.000001
vn 0.000000 -1.000000 -0.000001
vn 0.000000 -1.000000 -0.000001
s off
g Bakesmith_Models_1:WallEntry
usemtl initialShadingGroup
f 1/140/1 2/156/2 3/100/3 4/107/4
f 5/139/5 6/154/6 2/102/7 1/155/8
f 6/154/9 7/153/10 8/150/11 2/102/12
f 9/138/13 7/7/14 6/6/15 5/151/16
f 10/137/17 8/150/18 7/153/19 9/152/20
f 11/131/21 12/94/22 8/101/23 10/149/24
s 1
f 2/2/25 13/98/26 14/99/27 3/3/28
s off
f 15/130/29 16/113/30 17/128/31 18/147/32
f 18/18/33 17/148/34 19/19/35 20/144/36
s 1
f 2/2/25 8/8/37 21/96/38 13/98/26
s off
f 20/20/39 19/146/40 22/122/41 23/143/42
s 1
f 21/96/38 8/8/37 12/97/43 24/92/44
s off
f 23/23/45 22/145/46 25/25/47 26/141/48
f 26/26/49 25/142/50 27/118/51 28/82/52
s 2
f 29/108/53 30/30/54 31/112/55 32/32/56
s off
f 33/33/57 34/34/58 13/13/59 21/21/60
s 3
f 13/13/61 35/35/62 30/114/63 14/14/64
s off
f 34/34/65 36/80/66 35/35/67 13/13/68
f 37/126/69 17/17/70 16/127/71 38/109/72
f 39/76/73 19/19/74 17/148/75 37/37/76
s 2
f 32/32/56 31/112/55 40/110/77 41/41/78
s 4
f 42/89/79 43/90/80 44/93/81 45/45/82
s off
f 46/46/83 36/80/84 34/34/85 33/33/86
s 5
f 22/22/87 19/124/88 39/123/89 47/73/90
s off
f 46/46/91 33/33/92 21/21/93 48/48/94
s 3
f 35/35/62 49/49/95 31/31/96 30/114/63
s 6
f 48/48/97 21/21/98 24/95/99 44/44/100
s off
f 22/145/101 47/121/102 50/50/103 25/25/104
f 36/80/105 51/78/106 49/49/107 35/35/108
f 25/120/109 50/119/110 52/117/111 27/27/112
s 4
f 53/83/113 54/54/114 43/90/80 42/89/79
s off
f 36/36/115 46/79/116 55/55/117 56/56/118
f 51/162/119 36/163/120 56/56/121 57/57/122
f 58/58/123 46/46/124 48/48/125 59/59/126
s 3
f 49/49/95 60/60/127 40/40/128 31/31/96
s 6
f 59/59/129 48/48/97 44/44/100 43/43/130
s off
f 51/78/131 61/75/132 60/60/133 49/49/134
f 62/62/135 57/57/136 56/56/137 55/55/138
f 46/164/139 58/77/140 62/62/141 55/55/142
f 58/161/143 51/51/144 57/57/145 62/62/146
f 63/63/147 61/75/148 51/78/149 58/58/150
f 63/63/151 58/58/152 59/59/153 64/64/154
s 3
f 60/60/127 37/37/155 38/125/156 40/40/128
s 6
f 64/64/157 59/59/129 43/43/130 54/87/158
s off
f 61/75/159 39/76/160 37/37/161 60/60/162
f 61/61/163 63/74/164 65/65/165 66/66/166
f 39/39/167 61/159/168 66/66/169 67/67/170
f 47/121/171 63/63/172 64/64/173 50/50/174
s 6
f 50/50/175 64/64/157 54/87/158 52/52/176
s off
f 67/67/177 66/66/178 65/65/179 68/68/180
f 63/160/181 47/157/182 68/68/183 65/65/184
s 5
f 47/47/90 39/158/89 67/67/185 68/68/186
s 2
f 30/30/54 29/108/53 69/106/187 4/4/188 3/116/189 14/115/190
s 4
f 45/45/82 44/93/81 24/24/191 12/12/192 11/86/193 70/84/194
s 2
f 16/16/195 15/105/196 71/103/197 41/41/78 40/110/77 38/38/198
s 4
f 52/88/199 54/54/114 53/83/113 72/81/200 28/28/201 27/91/202
s off
f 70/70/203 11/11/204 10/10/205 9/9/206 5/5/207 1/1/208 4/132/209 69/69/210
f 71/71/211 15/15/212 18/136/213 20/135/214 23/134/215 26/133/216 28/129/217 72/72/218
f 72/72/219 53/53/220 42/42/221 45/85/222 70/70/223 69/69/224 29/29/225 32/111/226 41/104/227 71/71/228
